<svg width="21" height="20" viewBox="0 0 21 20" fill="none" xmlns="http://www.w3.org/2000/svg">
<path d="M10.7413 0C5.22733 0 0.741333 4.486 0.741333 10C0.741333 15.514 5.22733 20 10.7413 20C16.2553 20 20.7413 15.514 20.7413 10C20.7413 4.486 16.2553 0 10.7413 0ZM8.74233 14.413L5.73678 11.4139C5.34603 11.024 5.34524 10.3912 5.73502 10.0003C6.12504 9.60918 6.75835 9.60846 7.14926 9.9987L8.74033 11.587L13.3273 7C13.7178 6.60953 14.3509 6.60953 14.7413 7C15.1318 7.39047 15.1318 8.02353 14.7413 8.414L8.74233 14.413Z" fill="#46E169"/>
</svg>
