<svg width="26" height="11" viewBox="0 0 26 11" fill="none" xmlns="http://www.w3.org/2000/svg">
<path d="M24.7522 4.71981C24.7519 4.71955 24.7516 4.71925 24.7513 4.719L19.6678 0.250247C19.287 -0.0845223 18.671 -0.0832765 18.2919 0.253169C17.9129 0.589571 17.9143 1.13368 18.2952 1.4685L21.7082 4.46875H1.10471C0.567393 4.46875 0.131836 4.85349 0.131836 5.32812C0.131836 5.80275 0.567393 6.18749 1.10471 6.18749H21.7082L18.2952 9.18774C17.9144 9.52256 17.9129 10.0667 18.292 10.4031C18.671 10.7396 19.2871 10.7407 19.6678 10.406L24.7513 5.93724C24.7516 5.93699 24.7519 5.93669 24.7522 5.93643C25.1332 5.6005 25.132 5.05462 24.7522 4.71981Z" fill="white"/>
</svg>
