<svg width="104" height="104" viewBox="0 0 104 104" fill="none" xmlns="http://www.w3.org/2000/svg">
<path d="M19.5 76.375H4.875V100.75H19.5V76.375Z" fill="white"/>
<path d="M45.5 52H30.875V100.75H45.5V52Z" fill="white"/>
<path d="M71.5 68.25H56.875V100.75H71.5V68.25Z" fill="white"/>
<path d="M19.5 103.188H4.875C3.49375 103.188 2.4375 102.131 2.4375 100.75V76.375C2.4375 74.9937 3.49375 73.9375 4.875 73.9375H19.5C20.8813 73.9375 21.9375 74.9937 21.9375 76.375V100.75C21.9375 102.131 20.8813 103.188 19.5 103.188ZM7.3125 98.3125H17.0625V78.8125H7.3125V98.3125Z" fill="#444B54"/>
<path d="M45.5 103.188H30.875C29.4937 103.188 28.4375 102.131 28.4375 100.75V52C28.4375 50.6187 29.4937 49.5625 30.875 49.5625H45.5C46.8813 49.5625 47.9375 50.6187 47.9375 52V100.75C47.9375 102.131 46.8813 103.188 45.5 103.188ZM33.3125 98.3125H43.0625V54.4375H33.3125V98.3125Z" fill="#444B54"/>
<path d="M71.5 103.188H56.875C55.4937 103.188 54.4375 102.131 54.4375 100.75V68.25C54.4375 66.8687 55.4937 65.8125 56.875 65.8125H71.5C72.8813 65.8125 73.9375 66.8687 73.9375 68.25V100.75C73.9375 102.131 72.8813 103.188 71.5 103.188ZM59.3125 98.3125H69.0625V70.6875H59.3125V98.3125Z" fill="#444B54"/>
<path d="M97.5 41.4375H82.875C81.4937 41.4375 80.4375 42.4937 80.4375 43.875V100.75C80.4375 102.131 81.4937 103.188 82.875 103.188H97.5C98.8813 103.188 99.9375 102.131 99.9375 100.75V43.875C99.9375 42.4937 98.8813 41.4375 97.5 41.4375Z" fill="#6F70ED"/>
<path d="M4.0625 48.75C2.7625 48.75 1.625 47.6937 1.625 46.3937V46.0687C1.625 44.6875 2.68125 43.6312 3.98125 43.55C5.3625 43.55 6.41875 44.6062 6.5 45.9062V46.2312C6.5 47.6125 5.44375 48.75 4.0625 48.75C4.14375 48.75 4.0625 48.75 4.0625 48.75Z" fill="#6F70ED"/>
<path d="M99.2062 1.7875C98.9625 1.70625 98.6375 1.625 98.3125 1.625H98.2313H90.1063C88.725 1.625 87.6688 2.68125 87.6688 4.0625C87.6688 5.44375 88.725 6.5 90.1063 6.5H92.3812L65 33.9625L40.7062 9.66875C39.7312 8.69375 38.1875 8.69375 37.2938 9.66875L10.4813 36.1562C9.50625 37.1312 9.50625 38.675 10.4813 39.5688C10.9688 40.0563 11.6188 40.3 12.1875 40.3C12.8375 40.3 13.4063 40.0563 13.8938 39.5688L39 14.7875L63.2938 39.0812C64.2688 40.0562 65.8125 40.0562 66.7062 39.0812L95.875 9.9125V12.1875C95.875 13.5688 96.9313 14.625 98.3125 14.625C99.6937 14.625 100.75 13.5688 100.75 12.1875V4.0625C100.75 3.0875 100.181 2.19375 99.2062 1.7875Z" fill="#6F70ED"/>
</svg>
