<svg width="150" height="150" viewBox="0 0 150 150" fill="none" xmlns="http://www.w3.org/2000/svg">
<path d="M130.822 85.065C132.525 81.8325 133.5 78.1575 133.5 74.25C133.5 64.3185 127.261 55.8645 118.499 52.533C118.499 52.5225 118.5 52.512 118.5 52.5C118.5 35.103 104.397 21 87 21C72.324 21 60.0285 31.0515 56.5305 44.6355C54.3165 43.908 51.957 43.5 49.5 43.5C37.962 43.5 28.4655 52.1895 27.165 63.378C19.359 65.0295 13.5 71.9535 13.5 80.25C13.5 89.7765 21.2235 97.5 30.75 97.5C31.0155 97.5 31.278 97.482 31.539 97.467C31.533 97.7295 31.5 97.986 31.5 98.25C31.5 115.233 45.267 129 62.25 129C71.9055 129 80.5125 124.542 86.151 117.579C89.418 120.916 93.96 123 99 123C105.975 123 112.011 119.025 114.999 113.223C116.577 113.725 118.256 114 120 114C129.113 114 136.5 106.612 136.5 97.5C136.5 92.5335 134.295 88.0905 130.822 85.065Z" fill="#6F70ED"/>
<path d="M29.25 64.5H14.25C13.836 64.5 13.5 64.164 13.5 63.75C13.5 63.336 13.836 63 14.25 63H29.25C29.664 63 30 63.336 30 63.75C30 64.164 29.6655 64.5 29.25 64.5ZM33.75 64.5H32.25C31.836 64.5 31.5 64.164 31.5 63.75C31.5 63.336 31.836 63 32.25 63H33.75C34.164 63 34.5 63.336 34.5 63.75C34.5 64.164 34.1655 64.5 33.75 64.5ZM41.2365 67.5H27.75C27.336 67.5 27 67.164 27 66.75C27 66.336 27.336 66 27.75 66H41.2365C41.6505 66 41.9865 66.336 41.9865 66.75C41.9865 67.164 41.6505 67.5 41.2365 67.5ZM24.75 67.5H23.25C22.836 67.5 22.5 67.164 22.5 66.75C22.5 66.336 22.836 66 23.25 66H24.75C25.164 66 25.5 66.336 25.5 66.75C25.5 67.164 25.1655 67.5 24.75 67.5ZM20.25 67.5H17.25C16.836 67.5 16.5 67.164 16.5 66.75C16.5 66.336 16.836 66 17.25 66H20.25C20.664 66 21 66.336 21 66.75C21 67.164 20.6655 67.5 20.25 67.5ZM29.25 70.5H26.25C25.836 70.5 25.5 70.164 25.5 69.75C25.5 69.336 25.836 69 26.25 69H29.25C29.664 69 30 69.336 30 69.75C30 70.164 29.664 70.5 29.25 70.5ZM33.75 57C33.4845 57 32.5155 57 32.25 57C31.836 57 31.5 57.336 31.5 57.75C31.5 58.164 31.836 58.5 32.25 58.5C32.5155 58.5 33.4845 58.5 33.75 58.5C34.164 58.5 34.5 58.164 34.5 57.75C34.5 57.336 34.164 57 33.75 57ZM33.75 60C33.4845 60 26.5155 60 26.25 60C25.836 60 25.5 60.336 25.5 60.75C25.5 61.164 25.836 61.5 26.25 61.5C26.5155 61.5 33.4845 61.5 33.75 61.5C34.164 61.5 34.5 61.164 34.5 60.75C34.5 60.336 34.164 60 33.75 60ZM41.25 63C40.9845 63 37.0155 63 36.75 63C36.336 63 36 63.336 36 63.75C36 64.164 36.336 64.5 36.75 64.5C37.0155 64.5 40.9845 64.5 41.25 64.5C41.664 64.5 42 64.164 42 63.75C42 63.336 41.664 63 41.25 63ZM132.75 102H117.75C117.336 102 117 101.664 117 101.25C117 100.836 117.336 100.5 117.75 100.5H132.75C133.164 100.5 133.5 100.836 133.5 101.25C133.5 101.664 133.164 102 132.75 102ZM138.75 102H135.75C135.336 102 135 101.664 135 101.25C135 100.836 135.336 100.5 135.75 100.5H138.75C139.164 100.5 139.5 100.836 139.5 101.25C139.5 101.664 139.164 102 138.75 102ZM146.25 105H131.25C130.836 105 130.5 104.664 130.5 104.25C130.5 103.836 130.836 103.5 131.25 103.5H146.25C146.664 103.5 147 103.836 147 104.25C147 104.664 146.665 105 146.25 105ZM128.25 105H126.75C126.336 105 126 104.664 126 104.25C126 103.836 126.336 103.5 126.75 103.5H128.25C128.664 103.5 129 103.836 129 104.25C129 104.664 128.664 105 128.25 105ZM123.705 105H120.75C120.336 105 120 104.664 120 104.25C120 103.836 120.336 103.5 120.75 103.5H123.705C124.119 103.5 124.455 103.836 124.455 104.25C124.455 104.664 124.119 105 123.705 105ZM137.25 99H129.75C129.336 99 129 98.664 129 98.25C129 97.836 129.336 97.5 129.75 97.5H137.25C137.664 97.5 138 97.836 138 98.25C138 98.664 137.665 99 137.25 99ZM132.75 108H129.75C129.336 108 129 107.664 129 107.25C129 106.836 129.336 106.5 129.75 106.5H132.75C133.164 106.5 133.5 106.836 133.5 107.25C133.5 107.664 133.164 108 132.75 108Z" fill="white"/>
<path d="M90.75 56.25V57H86.25V56.25C86.25 56.25 79.887 56.25 78 56.25C74.2725 56.25 71.25 53.2275 71.25 49.5C71.25 46.0005 73.923 43.1565 77.3325 42.8175C77.2995 42.546 77.25 42.2805 77.25 42C77.25 38.2725 80.2725 35.25 84 35.25C86.157 35.25 88.0545 36.279 89.2905 37.854C89.5005 33.9 92.7435 30.75 96.75 30.75C100.892 30.75 104.25 34.1085 104.25 38.25C104.25 38.919 104.135 39.555 103.97 40.173C104.933 39.0075 106.369 38.25 108 38.25C110.672 38.25 112.851 40.2525 113.183 42.8325C113.454 42.7995 113.72 42.75 114 42.75C117.728 42.75 120.75 45.7725 120.75 49.5C120.75 53.2275 117.728 56.25 114 56.25C110.272 56.25 99.75 56.25 99.75 56.25H90.75Z" fill="#FDFCEF"/>
<path d="M96.75 30C101.299 30 105 33.7005 105 38.25C105 38.274 105 38.2965 105 38.3205C105.903 37.788 106.935 37.5 108 37.5C110.746 37.5 113.117 39.3915 113.787 42.0075C113.858 42.003 113.928 42 114 42C118.135 42 121.5 45.3645 121.5 49.5C121.5 53.6355 118.135 57 114 57H90.75C90.336 57 90 56.664 90 56.25C90 55.836 90.336 55.5 90.75 55.5H114C117.309 55.5 120 52.809 120 49.5C120 46.191 117.309 43.5 114 43.5C113.825 43.5 113.655 43.5255 113.485 43.548L113.274 43.5765C113.242 43.581 113.213 43.5825 113.181 43.5825C112.812 43.5825 112.488 43.305 112.438 42.927C112.152 40.6875 110.244 39 108 39C106.673 39 105.415 39.6015 104.548 40.65C104.401 40.827 104.187 40.923 103.97 40.923C103.853 40.923 103.736 40.896 103.627 40.839C103.314 40.6785 103.157 40.32 103.247 39.9795C103.419 39.327 103.5 38.778 103.5 38.25C103.5 34.5285 100.472 31.5 96.75 31.5C93.1785 31.5 90.2295 34.308 90.039 37.8945C90.0225 38.2065 89.814 38.475 89.5155 38.5695C89.4405 38.5935 89.364 38.6055 89.2875 38.6055C89.0625 38.6055 88.8435 38.502 88.6995 38.3175C87.543 36.8445 85.8315 36 84 36C80.691 36 78 38.691 78 42C78 42.1755 78.0255 42.345 78.048 42.5145L78.0765 42.726C78.1005 42.927 78.0435 43.128 77.9175 43.2855C77.7915 43.443 77.607 43.5435 77.4075 43.563C74.3235 43.8705 72 46.4235 72 49.5C72 52.809 74.691 55.5 78 55.5H86.25C86.664 55.5 87 55.836 87 56.25C87 56.664 86.664 57 86.25 57H78C73.8645 57 70.5 53.6355 70.5 49.5C70.5 45.9045 73.0335 42.8805 76.5045 42.1845C76.5015 42.123 76.5 42.0615 76.5 42C76.5 37.8645 79.8645 34.5 84 34.5C85.764 34.5 87.4395 35.124 88.7745 36.246C89.6715 32.64 92.9175 30 96.75 30Z" fill="#472B29"/>
<path d="M99 40.5C101.104 40.5 102.913 41.9985 103.369 44.0115C103.92 43.6785 104.548 43.5 105.187 43.5C106.99 43.5 108.484 44.8455 108.717 46.602C109.021 46.533 109.311 46.5 109.594 46.5C111.888 46.5 113.811 48.3 113.971 50.598C113.985 50.805 113.829 50.985 113.623 51C113.614 51 113.605 51 113.596 51C113.401 51 113.236 50.8485 113.223 50.652C113.089 48.7455 111.496 47.25 109.594 47.25C109.251 47.25 108.889 47.313 108.487 47.4405C108.454 47.451 108.42 47.4555 108.387 47.4555C108.304 47.4555 108.222 47.4255 108.153 47.3745C108.057 47.3055 108 47.1825 108 47.0625C108 45.5115 106.738 44.25 105.187 44.25C104.517 44.25 103.86 44.502 103.341 44.9595C103.27 45.021 103.182 45.054 103.093 45.054C103.045 45.054 102.999 45.045 102.954 45.0255C102.822 44.973 102.732 44.85 102.721 44.7075C102.565 42.768 100.932 41.25 99 41.25C98.688 41.25 98.3625 41.301 97.977 41.4105C97.9425 41.421 97.9065 41.4255 97.872 41.4255C97.7085 41.4255 97.5615 41.316 97.5135 41.1525C97.4565 40.953 97.572 40.746 97.7715 40.689C98.2245 40.56 98.616 40.5 99 40.5ZM78.1755 42.75C80.1645 42.75 81.9375 44.0955 82.4865 46.023C82.5435 46.2225 82.428 46.4295 82.2285 46.4865C82.1925 46.4955 82.158 46.5 82.125 46.5C81.9615 46.5 81.8115 46.392 81.765 46.227C81.3075 44.622 79.8315 43.5 78.1755 43.5C78 43.5 77.8305 43.521 77.6625 43.5435C77.6445 43.5465 77.628 43.548 77.61 43.548C77.4285 43.548 77.2665 43.41 77.241 43.2225C77.2125 43.017 77.3565 42.828 77.562 42.801C77.763 42.774 77.967 42.75 78.1755 42.75Z" fill="#472B29"/>
<path d="M55.176 114.45C51.798 114.45 49.05 111.981 49.05 108.946V48.5535C49.05 45.519 51.798 43.05 55.176 43.05H84.324C87.702 43.05 90.45 45.519 90.45 48.5535V108.946C90.4515 110.392 89.8245 111.76 88.686 112.8C87.5205 113.863 85.971 114.45 84.3255 114.45H55.176Z" fill="white"/>
<path d="M84.324 44.1C87.123 44.1 89.4 46.098 89.4 48.5535V108.948C89.4 110.094 88.8945 111.186 87.9765 112.024C87.006 112.911 85.7085 113.4 84.3255 113.4H55.176C52.377 113.4 50.1 111.402 50.1 108.946V48.5535C50.1 46.098 52.377 44.1 55.176 44.1H84.324ZM84.324 42H55.176C51.2295 42 48 44.949 48 48.5535V108.948C48 112.551 51.2295 115.5 55.176 115.5H84.3255C88.272 115.5 91.5015 112.551 91.5 108.946V48.5535C91.5 44.949 88.2705 42 84.324 42Z" fill="#472B29"/>
<path d="M84 60.18V102H54V92.82V82.62V51H79.9995H84V60.18Z" fill="#C5DEF0"/>
<path d="M54.75 84C54.336 84 54 83.664 54 83.25V52.7625C54 50.964 55.4355 49.5 57.1995 49.5H82.407C84.1815 49.5 85.626 50.9715 85.626 52.782C85.626 53.196 85.29 53.532 84.876 53.532C84.462 53.532 84.126 53.196 84.126 52.782C84.126 51.7995 83.355 51 82.407 51H57.1995C56.262 51 55.5 51.7905 55.5 52.7625V83.25C55.5 83.664 55.164 84 54.75 84ZM82.3515 103.5H57.168C55.4205 103.5 54 102.028 54 100.218V93.75C54 93.336 54.336 93 54.75 93C55.164 93 55.5 93.336 55.5 93.75V100.218C55.5 101.2 56.2485 102 57.168 102H82.3515C83.2605 102 84 101.209 84 100.237V65.25C84 64.836 84.336 64.5 84.75 64.5C85.164 64.5 85.5 64.836 85.5 65.25V100.237C85.5 102.036 84.0885 103.5 82.3515 103.5Z" fill="#472B29"/>
<path d="M69.7515 105.75C68.9558 105.75 68.1928 106.066 67.6302 106.629C67.0676 107.191 66.7515 107.954 66.7515 108.75C66.7515 109.546 67.0676 110.309 67.6302 110.871C68.1928 111.434 68.9558 111.75 69.7515 111.75C70.5471 111.75 71.3102 111.434 71.8728 110.871C72.4354 110.309 72.7515 109.546 72.7515 108.75C72.7515 107.954 72.4354 107.191 71.8728 106.629C71.3102 106.066 70.5471 105.75 69.7515 105.75Z" fill="#CBC9BC"/>
<path d="M69.7515 106.5C70.992 106.5 72.0015 107.51 72.0015 108.75C72.0015 109.99 70.992 111 69.7515 111C68.511 111 67.5015 109.99 67.5015 108.75C67.5015 107.51 68.511 106.5 69.7515 106.5ZM69.7515 105C67.68 105 66.0015 106.678 66.0015 108.75C66.0015 110.821 67.68 112.5 69.7515 112.5C71.823 112.5 73.5015 110.821 73.5015 108.75C73.5015 106.678 71.823 105 69.7515 105Z" fill="#472B29"/>
<path d="M84.75 63C84.336 63 84 62.664 84 62.25V57.75C84 57.336 84.336 57 84.75 57C85.164 57 85.5 57.336 85.5 57.75V62.25C85.5 62.664 85.164 63 84.75 63Z" fill="#472B29"/>
<path d="M53.1315 91.4085C52.7175 91.4085 52.3815 91.0725 52.3815 90.6585V86.6895C52.3815 86.2755 52.7175 85.9395 53.1315 85.9395C53.5455 85.9395 53.8815 86.2755 53.8815 86.6895V90.6585C53.8815 91.074 53.5455 91.4085 53.1315 91.4085Z" fill="#472B29"/>
<path d="M53.25 96.75C53.25 96.75 55.6005 96.75 58.5 96.75C61.3995 96.75 63.75 94.3995 63.75 91.5C63.75 88.8285 61.7475 86.649 59.1675 86.3175C59.2095 86.049 59.25 85.7805 59.25 85.5C59.25 82.6005 56.8995 80.25 54 80.25C52.452 80.25 51.075 80.9325 50.115 81.9975C49.539 79.2855 47.1345 77.25 44.25 77.25C40.9365 77.25 38.25 79.9365 38.25 83.25C38.25 83.5365 38.295 83.811 38.334 84.087C37.692 83.571 36.888 83.25 36 83.25C34.158 83.25 32.6325 84.5805 32.3175 86.3325C32.049 86.2905 31.7805 86.25 31.5 86.25C28.6005 86.25 26.25 88.6005 26.25 91.5C26.25 94.3995 28.6005 96.75 31.5 96.75C34.3995 96.75 42.75 96.75 42.75 96.75V97.5H53.25V96.75Z" fill="#FDFCEF"/>
<path d="M55.875 90C55.668 90 55.5 89.832 55.5 89.625C55.5 87.7905 56.9925 86.298 58.827 86.298C58.878 86.3115 59.9325 86.2965 60.693 86.502C60.8925 86.556 61.011 86.7615 60.957 86.961C60.903 87.162 60.6975 87.2805 60.498 87.225C59.832 87.045 58.848 87.045 58.8285 87.048C57.4065 87.048 56.25 88.2045 56.25 89.625C56.25 89.832 56.082 90 55.875 90ZM45.75 96C45.5511 96 45.3603 96.079 45.2197 96.2196C45.079 96.3603 45 96.5511 45 96.75C45 96.9489 45.079 97.1396 45.2197 97.2803C45.3603 97.421 45.5511 97.5 45.75 97.5C45.9489 97.5 46.1397 97.421 46.2803 97.2803C46.421 97.1396 46.5 96.9489 46.5 96.75C46.5 96.5511 46.421 96.3603 46.2803 96.2196C46.1397 96.079 45.9489 96 45.75 96Z" fill="#472B29"/>
<path d="M58.5 97.5H53.25C52.836 97.5 52.5 97.164 52.5 96.75C52.5 96.336 52.836 96 53.25 96H58.5C60.981 96 63 93.981 63 91.5C63 89.256 61.3125 87.348 59.073 87.0615C58.872 87.0345 58.6905 86.9295 58.569 86.7675C58.4475 86.6055 58.3965 86.4015 58.428 86.202C58.4625 85.971 58.5 85.74 58.5 85.5C58.5 83.019 56.481 81 54 81C52.725 81 51.543 81.5325 50.6715 82.5C50.484 82.7085 50.19 82.797 49.9215 82.722C49.6485 82.6485 49.44 82.4295 49.3815 82.1535C48.87 79.7475 46.7115 78 44.25 78C41.355 78 39 80.355 39 83.25C39 83.4645 39.0315 83.67 39.0615 83.877C39.105 84.1815 38.967 84.534 38.6985 84.687C38.43 84.84 38.1045 84.864 37.8645 84.672C37.317 84.2325 36.6735 84 36 84C34.551 84 33.312 85.0365 33.0555 86.466C32.9835 86.8665 32.6115 87.135 32.202 87.0735C31.971 87.0375 31.74 87 31.5 87C29.019 87 27 89.019 27 91.5C27 93.981 29.019 96 31.5 96H42.75C43.164 96 43.5 96.336 43.5 96.75C43.5 97.164 43.164 97.5 42.75 97.5H31.5C28.191 97.5 25.5 94.809 25.5 91.5C25.5 88.191 28.191 85.5 31.5 85.5C31.5885 85.5 31.674 85.503 31.761 85.509C32.382 83.73 34.0665 82.5 36 82.5C36.5235 82.5 37.0335 82.5915 37.5165 82.77C37.764 79.2705 40.689 76.5 44.25 76.5C46.9965 76.5 49.449 78.1905 50.4795 80.661C51.4995 79.914 52.7325 79.5 54 79.5C57.309 79.5 60 82.191 60 85.5C60 85.572 59.9985 85.6425 59.994 85.713C62.6085 86.385 64.5 88.7535 64.5 91.5C64.5 94.809 61.809 97.5 58.5 97.5Z" fill="#472B29"/>
<path d="M50.25 96C50.0115 96 48.9885 96 48.75 96C48.336 96 48 96.336 48 96.75C48 97.164 48.336 97.5 48.75 97.5C48.9885 97.5 50.0115 97.5 50.25 97.5C50.664 97.5 51 97.164 51 96.75C51 96.336 50.664 96 50.25 96Z" fill="#472B29"/>
<path d="M106.643 104.55C106.347 104.55 106.053 104.425 105.846 104.182C105.468 103.743 105.519 103.08 105.96 102.703C111.65 97.827 114.914 90.735 114.914 83.25C114.914 75.765 111.65 68.673 105.96 63.7965C105.519 63.42 105.468 62.757 105.846 62.3175C106.221 61.8765 106.886 61.8255 107.325 62.2035C113.481 67.4805 117.014 75.1515 117.014 83.25C117.014 91.3485 113.483 99.021 107.325 104.296C107.127 104.467 106.884 104.55 106.643 104.55Z" fill="#472B29"/>
<path d="M100.841 98.7075C100.533 98.7075 100.229 98.5725 100.022 98.313C99.6585 97.8615 99.732 97.2 100.184 96.8385C104.331 93.513 106.71 88.56 106.71 83.25C106.71 77.94 104.331 72.987 100.184 69.6615C99.7305 69.3 99.657 68.637 100.022 68.187C100.383 67.7295 101.046 67.659 101.496 68.025C106.145 71.7495 108.81 77.301 108.81 83.25C108.81 89.199 106.145 94.7505 101.496 98.475C101.303 98.631 101.072 98.7075 100.841 98.7075Z" fill="#472B29"/>
<path d="M95.1 92.76C94.764 92.76 94.437 92.601 94.233 92.304C93.9045 91.8255 94.026 91.1715 94.5045 90.843C97.0125 89.1225 98.508 86.283 98.508 83.2485C98.508 80.214 97.0125 77.3745 94.5045 75.654C94.0275 75.3255 93.906 74.673 94.233 74.193C94.56 73.716 95.211 73.593 95.694 73.9215C98.7705 76.032 100.608 79.518 100.608 83.247C100.608 86.973 98.7705 90.459 95.694 92.5725C95.5125 92.7 95.304 92.76 95.1 92.76Z" fill="#472B29"/>
<path d="M63.75 56.25C62.9544 56.25 62.1913 56.5661 61.6287 57.1287C61.0661 57.6913 60.75 58.4544 60.75 59.25C60.75 60.0456 61.0661 60.8087 61.6287 61.3713C62.1913 61.9339 62.9544 62.25 63.75 62.25C64.5456 62.25 65.3087 61.9339 65.8713 61.3713C66.4339 60.8087 66.75 60.0456 66.75 59.25C66.75 58.4544 66.4339 57.6913 65.8713 57.1287C65.3087 56.5661 64.5456 56.25 63.75 56.25Z" fill="#F37E98"/>
<path d="M63.75 62.625C61.89 62.625 60.375 61.11 60.375 59.25C60.375 57.39 61.89 55.875 63.75 55.875C65.61 55.875 67.125 57.39 67.125 59.25C67.125 61.11 65.61 62.625 63.75 62.625ZM63.75 56.625C62.3025 56.625 61.125 57.8025 61.125 59.25C61.125 60.6975 62.3025 61.875 63.75 61.875C65.1975 61.875 66.375 60.6975 66.375 59.25C66.375 57.8025 65.1975 56.625 63.75 56.625Z" fill="#472B29"/>
<path d="M75.75 56.25C74.9543 56.25 74.1913 56.5661 73.6287 57.1287C73.0661 57.6913 72.75 58.4544 72.75 59.25C72.75 60.0456 73.0661 60.8087 73.6287 61.3713C74.1913 61.9339 74.9543 62.25 75.75 62.25C76.5456 62.25 77.3087 61.9339 77.8713 61.3713C78.4339 60.8087 78.75 60.0456 78.75 59.25C78.75 58.4544 78.4339 57.6913 77.8713 57.1287C77.3087 56.5661 76.5456 56.25 75.75 56.25Z" fill="#52BFA1"/>
<path d="M75.75 62.625C73.89 62.625 72.375 61.11 72.375 59.25C72.375 57.39 73.89 55.875 75.75 55.875C77.61 55.875 79.125 57.39 79.125 59.25C79.125 61.11 77.61 62.625 75.75 62.625ZM75.75 56.625C74.3025 56.625 73.125 57.8025 73.125 59.25C73.125 60.6975 74.3025 61.875 75.75 61.875C77.1975 61.875 78.375 60.6975 78.375 59.25C78.375 57.8025 77.1975 56.625 75.75 56.625Z" fill="#472B29"/>
<path d="M63.75 68.25C62.9544 68.25 62.1913 68.5661 61.6287 69.1287C61.0661 69.6913 60.75 70.4543 60.75 71.25C60.75 72.0456 61.0661 72.8087 61.6287 73.3713C62.1913 73.9339 62.9544 74.25 63.75 74.25C64.5456 74.25 65.3087 73.9339 65.8713 73.3713C66.4339 72.8087 66.75 72.0456 66.75 71.25C66.75 70.4543 66.4339 69.6913 65.8713 69.1287C65.3087 68.5661 64.5456 68.25 63.75 68.25Z" fill="#FCBA7F"/>
<path d="M63.75 74.625C61.89 74.625 60.375 73.11 60.375 71.25C60.375 69.39 61.89 67.875 63.75 67.875C65.61 67.875 67.125 69.39 67.125 71.25C67.125 73.11 65.61 74.625 63.75 74.625ZM63.75 68.625C62.3025 68.625 61.125 69.8025 61.125 71.25C61.125 72.6975 62.3025 73.875 63.75 73.875C65.1975 73.875 66.375 72.6975 66.375 71.25C66.375 69.8025 65.1975 68.625 63.75 68.625Z" fill="#472B29"/>
<path d="M75.75 68.25C74.9543 68.25 74.1913 68.5661 73.6287 69.1287C73.0661 69.6913 72.75 70.4543 72.75 71.25C72.75 72.0456 73.0661 72.8087 73.6287 73.3713C74.1913 73.9339 74.9543 74.25 75.75 74.25C76.5456 74.25 77.3087 73.9339 77.8713 73.3713C78.4339 72.8087 78.75 72.0456 78.75 71.25C78.75 70.4543 78.4339 69.6913 77.8713 69.1287C77.3087 68.5661 76.5456 68.25 75.75 68.25Z" fill="#A2A2CC"/>
<path d="M75.75 74.625C73.89 74.625 72.375 73.11 72.375 71.25C72.375 69.39 73.89 67.875 75.75 67.875C77.61 67.875 79.125 69.39 79.125 71.25C79.125 73.11 77.61 74.625 75.75 74.625ZM75.75 68.625C74.3025 68.625 73.125 69.8025 73.125 71.25C73.125 72.6975 74.3025 73.875 75.75 73.875C77.1975 73.875 78.375 72.6975 78.375 71.25C78.375 69.8025 77.1975 68.625 75.75 68.625Z" fill="#472B29"/>
</svg>
