<svg width="144" height="144" viewBox="0 0 144 144" fill="none" xmlns="http://www.w3.org/2000/svg">
<path d="M97.794 10.776L101.241 14.19C102.321 15.261 103.887 15.681 105.36 15.294L110.052 14.061C111.408 13.704 112.797 14.508 113.166 15.858L114.444 20.538C114.846 22.005 115.992 23.151 117.459 23.553L122.139 24.831C123.489 25.2 124.293 26.589 123.936 27.945L122.703 32.637C122.316 34.11 122.736 35.676 123.807 36.756L127.221 40.203C128.208 41.199 128.208 42.801 127.221 43.797L123.807 47.244C122.736 48.324 122.316 49.89 122.703 51.363L123.936 56.055C124.293 57.411 123.489 58.8 122.139 59.169L117.459 60.447C115.992 60.849 114.846 61.995 114.444 63.462L113.166 68.142C112.797 69.492 111.408 70.296 110.052 69.939L105.36 68.706C103.887 68.319 102.321 68.739 101.241 69.81L97.794 73.224C96.798 74.211 95.196 74.211 94.2 73.224L90.753 69.81C89.673 68.739 88.107 68.319 86.634 68.706L79.5 70.575L77.556 63.456C77.154 61.989 76.008 60.843 74.541 60.441L67.422 58.497L69.297 51.36C69.684 49.887 69.264 48.321 68.193 47.241L64.779 43.794C63.792 42.798 63.792 41.196 64.779 40.2L68.193 36.753C69.264 35.673 69.684 34.107 69.297 32.634L68.064 27.942C67.707 26.586 68.511 25.197 69.861 24.828L74.541 23.55C76.008 23.148 77.154 22.002 77.556 20.535L78.834 15.855C79.203 14.505 80.592 13.701 81.948 14.058L86.64 15.291C88.113 15.678 89.679 15.258 90.759 14.187L94.206 10.773C95.199 9.79197 96.798 9.79197 97.794 10.776Z" fill="url(#paint0_radial)"/>
<path d="M118.446 100.044L121.575 109.428L130.959 112.557C132.348 113.019 132.348 114.987 130.959 115.449L121.575 118.578L118.446 127.962C117.984 129.351 116.016 129.351 115.554 127.962L112.425 118.578L103.041 115.449C101.652 114.987 101.652 113.019 103.041 112.557L112.425 109.428L115.554 100.044C116.016 98.652 117.984 98.652 118.446 100.044Z" fill="#E756F7"/>
<path d="M90.867 87.627L92.745 93.255L98.373 95.133C99.207 95.412 99.207 96.591 98.373 96.87L92.745 98.748L90.867 104.376C90.588 105.21 89.409 105.21 89.13 104.376L87.252 98.748L81.624 96.87C80.79 96.591 80.79 95.412 81.624 95.133L87.252 93.255L89.13 87.627C89.412 86.79 90.591 86.79 90.867 87.627Z" fill="#E756F7"/>
<path d="M15 127.242L10.758 123C8.415 120.657 8.415 116.859 10.758 114.516L62.379 62.895L75.108 75.624L23.484 127.242C21.141 129.585 17.343 129.585 15 127.242Z" fill="url(#paint1_linear)"/>
<path d="M99 34.758L103.242 39C105.585 41.343 105.585 45.141 103.242 47.484L75.105 75.621L62.376 62.892L90.513 34.755C92.859 32.415 96.657 32.415 99 34.758Z" fill="url(#paint2_linear)"/>
<defs>
<radialGradient id="paint0_radial" cx="0" cy="0" r="1" gradientUnits="userSpaceOnUse" gradientTransform="translate(96 42) scale(31.962)">
<stop stop-color="#9E17C2"/>
<stop offset="0.378" stop-color="#B72CD4"/>
<stop offset="1" stop-color="#E756F7"/>
</radialGradient>
<linearGradient id="paint1_linear" x1="27.186" y1="71.184" x2="49.839" y2="111.993" gradientUnits="userSpaceOnUse">
<stop stop-color="#6D7479"/>
<stop offset="1" stop-color="#323538"/>
</linearGradient>
<linearGradient id="paint2_linear" x1="77.319" y1="39.165" x2="91.911" y2="69.447" gradientUnits="userSpaceOnUse">
<stop stop-color="#CFDBE6"/>
<stop offset="1" stop-color="#8F979E"/>
</linearGradient>
</defs>
</svg>
