<svg width="144" height="144" viewBox="0 0 144 144" fill="none" xmlns="http://www.w3.org/2000/svg">
<path d="M132 72C132 105.132 105.132 132 72 132C38.868 132 12 105.132 12 72C12 38.868 38.868 12 72 12C105.132 12 132 38.868 132 72Z" fill="#E8EAF6"/>
<path d="M77.16 68.94C77.97 70.29 78.21 71.94 77.82 73.5C77.67 74.04 77.46 74.52 77.16 75H66.9C66.15 73.65 65.97 72.09 66.36 70.59C66.75 69.03 67.8 67.68 69.18 66.84C70.11 66.33 71.13 66.06 72.12 66.06C74.13 66.06 76.08 67.08 77.16 68.94Z" fill="#B2FF59"/>
<path d="M79.35 52.32C80.46 52.71 81.54 53.22 82.59 53.85C85.89 55.77 88.53 58.47 90.3 61.71L117.06 42.27C110.58 32.43 100.92 24.84 89.55 20.94L79.35 52.32Z" fill="#FB8C00"/>
<path d="M18 72C18 72.51 18 72.99 18.03 73.5C18.03 74.01 18.06 74.49 18.12 75H45.03C48.09 75 50.61 72.66 50.97 69.6C51.3 66.84 52.2 64.11 53.64 61.65L26.94 42.27C21.3 50.79 18 61.02 18 72Z" fill="#64DD17"/>
<path d="M26.94 42.27L53.64 61.65C53.67 61.56 53.73 61.44 53.79 61.35C56.34 57 60.24 53.94 64.65 52.32L54.45 20.94C43.08 24.84 33.42 32.43 26.94 42.27Z" fill="#B2FF59"/>
<path d="M54.45 20.94L64.65 52.32C69.3 50.61 74.55 50.52 79.35 52.32L89.55 20.94C84.06 19.02 78.15 18 72 18C65.85 18 59.94 19.02 54.45 20.94Z" fill="#FFCA28"/>
<path d="M90.3 61.71C91.2 63.27 91.89 64.95 92.34 66.72C92.58 67.68 92.79 68.67 92.88 69.63C93.24 72.69 95.76 75 98.82 75H125.88C125.94 74.49 125.97 74.01 125.97 73.5C126 72.99 126 72.51 126 72C126 61.02 122.7 50.79 117.06 42.27L90.3 61.71Z" fill="#D32F2F"/>
<path d="M73.737 79.296L104.196 67.419C105.756 66.81 106.524 65.055 105.918 63.498C105.414 62.208 104.121 61.458 102.807 61.584L70.266 64.707C66.102 65.106 63.051 68.805 63.453 72.969C63.852 77.133 67.551 80.184 71.715 79.782C72.408 79.713 73.11 79.536 73.737 79.296Z" fill="#263238"/>
<path d="M67.407 64.23C63.129 66.744 61.728 72.246 64.257 76.533C66.801 80.835 72.309 82.272 76.593 79.77C80.871 77.268 82.272 71.754 79.731 67.467C77.202 63.18 71.685 61.716 67.407 64.23Z" fill="#263238"/>
<path d="M70.536 69.435C69.105 70.266 68.637 72.12 69.48 73.548C70.335 74.988 72.198 75.471 73.629 74.625C75.069 73.794 75.54 71.952 74.694 70.512C73.839 69.081 71.976 68.601 70.536 69.435Z" fill="#4DD0E1"/>
<path d="M79.938 100.062C77.484 97.794 75.663 95.604 73.338 94.377C71.091 93.09 68.586 92.772 66 93C64.344 93.144 62.883 91.92 62.736 90.264C62.592 88.608 63.816 87.147 65.472 87C65.625 86.988 65.775 86.985 65.925 86.994L66 87C69.477 87.237 73.152 88.398 75.891 90.669C78.678 92.85 80.358 95.796 82.059 97.938L82.128 98.025C82.644 98.673 82.536 99.615 81.888 100.131C81.303 100.599 80.472 100.554 79.938 100.062Z" fill="#78909C"/>
<path d="M76.938 100.062C74.811 98.22 72.798 96.888 70.452 96.342C68.127 95.757 65.574 95.766 63 96C61.344 96.15 59.877 94.929 59.727 93.273C59.577 91.617 60.798 90.15 62.454 90C62.631 89.985 62.826 89.985 63 90C65.985 90.27 69.075 90.786 72.003 92.115C74.979 93.402 77.34 95.781 79.059 97.938L79.098 97.986C79.614 98.634 79.509 99.582 78.858 100.098C78.285 100.557 77.475 100.527 76.938 100.062Z" fill="#B0BEC5"/>
<path d="M69 123L68.958 119.598L75.669 111.024L82.926 109.194C82.605 114 81 117 78 120C75 123 72 123 72 123H69Z" fill="#B0BEC5"/>
<path d="M55.614 106.287C55.407 106.227 55.2 106.164 54.993 106.089C53.733 105.63 52.65 104.982 51.759 104.214C50.994 103.557 50.379 102.807 49.932 102.003C49.029 102.681 48.369 103.599 48.153 104.682C46.926 110.82 53.295 114 56.847 114C56.85 114 56.913 113.997 57 113.994C55.467 111.723 54.909 109.077 55.614 106.287Z" fill="#546E7A"/>
<path d="M78.06 116.064C73.344 119.712 66.819 121.131 61.269 119.004C55.719 116.886 52.56 111.684 54.651 106.053C56.22 101.832 58.815 99 63 99C69 99 69 102 72 102C72.837 102.321 76.143 101.574 76.485 100.644C83.454 100.248 88.437 104.346 78.06 116.064Z" fill="#CFD8DC"/>
<path d="M89.616 103.608C88.581 106.398 82.302 104.289 79.143 103.374C75.984 102.459 74.265 99.456 75.3 96.666C76.335 93.876 79.737 92.355 82.896 93.27C86.055 94.182 91.491 98.553 89.616 103.608Z" fill="#78909C"/>
<path d="M82.5 96C81.672 96 81 96.672 81 97.5C81 98.328 81.672 99 82.5 99C83.328 99 84 98.328 84 97.5C84 96.672 83.328 96 82.5 96Z" fill="black"/>
<path d="M69.249 122.043L72 126H78V124.065C78 124.065 78 120 74.499 120L69.249 122.043Z" fill="#90A4AE"/>
<path d="M65.676 105.555C73.182 109.719 71.787 117.33 63 120C63 120 64.878 118.077 59.499 115.986C55.857 114.57 53.955 111.033 56.427 107.547C58.431 104.715 62.271 103.632 65.676 105.555Z" fill="#90A4AE"/>
<path d="M72 126C72.669 124.902 76.101 120.672 75 120L66.6 118.884C65.499 118.218 68.301 110.49 68.301 110.49L63 120L72 126Z" fill="#90A4AE"/>
<path d="M56.07 87C55.26 87.87 54.66 88.89 54.27 90H42L45 87H56.07Z" fill="#2196F3"/>
<path d="M54.24 96H39L42 93H53.73C53.73 93.27 53.73 93.54 53.76 93.81C53.82 94.59 54 95.31 54.24 96Z" fill="#2196F3"/>
<path d="M77.2771 82.9C76.3667 81.3667 76.8938 79.8334 76.8938 79.8334C76.8938 79.8334 77.325 77.9167 80.1042 77.9167C86.9083 77.9167 89.6875 94.6875 89.6875 94.6875C89.6875 94.6875 88.7292 96.125 82.5 96.125C76.2708 96.125 75.3125 94.6875 75.3125 94.6875C76.5104 88.5542 79.8167 81.9417 79.8167 81.9417C79.8167 81.9417 80.6792 80.3125 79.2896 80.3125C78.3313 80.3125 78.1875 82.7084 78.1875 82.7084" fill="#673AB7"/>
<path d="M77.2292 82.7084C77.2292 82.9959 77.4208 83.1875 77.7083 83.1875C77.9958 83.1875 78.1875 82.9959 78.1875 82.7084C78.1875 82.4209 77.9958 82.2292 77.7083 82.2292C77.4208 82.2292 77.2292 82.4209 77.2292 82.7084Z" fill="#673AB7"/>
<path d="M82.5 97.0833C88.25 97.0833 89.9271 96.1729 90.2146 95.9813C90.6458 95.6938 90.7896 95.0708 90.5021 94.6396C90.2146 94.2083 89.6396 94.0646 89.2083 94.3521C89.1125 94.4 87.5792 95.1667 82.5 95.1667C77.325 95.1667 75.8396 94.3521 75.7917 94.3521C75.3604 94.0646 74.7854 94.2083 74.4979 94.6396C74.2104 95.0708 74.3542 95.6938 74.7854 95.9813C75.0729 96.1729 76.75 97.0833 82.5 97.0833Z" fill="#CE93D8"/>
<path d="M84.0333 84.1458L83.5542 85.1041L82.5 85.2479L83.2667 85.9666L83.075 87.0208L83.9854 86.5416L84.8958 87.0208L84.7042 85.9666L85.4708 85.2479L84.4167 85.1041L84.0333 84.1458ZM85.7583 88.4583L85.2792 89.4166L84.225 89.5604L84.9917 90.2791L84.8 91.3333L85.7104 90.8541L86.6208 91.3333L86.4292 90.2791L87.2917 89.5604L86.2375 89.4166L85.7583 88.4583ZM80.8229 89.1771C80.8229 87.9312 79.9125 86.9729 78.7146 86.8291C79.05 86.6375 79.4333 86.5416 79.8646 86.5416C81.3021 86.5416 82.5 87.7396 82.5 89.1771C82.5 90.6146 81.3021 91.8125 79.8646 91.8125C79.4333 91.8125 79.05 91.7166 78.7146 91.525C79.9125 91.3812 80.8229 90.4229 80.8229 89.1771Z" fill="#FDD835"/>
<path d="M77.2292 82.7084C77.2292 82.9959 77.4208 83.1875 77.7083 83.1875C77.9958 83.1875 78.1875 82.9959 78.1875 82.7084C78.1875 82.4209 77.9958 82.2292 77.7083 82.2292C77.4208 82.2292 77.2292 82.4209 77.2292 82.7084Z" fill="#673AB7"/>
<path d="M79.8167 81.9417C79.8167 81.9417 80.6792 80.3125 79.2896 80.3125C78.3312 80.3125 78.1875 82.7083 78.1875 82.7083C78.1875 82.9958 77.9958 83.1875 77.7083 83.1875C77.5167 83.1875 77.3729 83.0917 77.2771 82.9C76.8937 82.2771 76.7979 81.7021 76.75 81.175C76.7979 80.025 77.9958 78.875 79.1458 78.875C80.3437 78.875 80.5833 79.5938 80.5833 80.3125C80.5833 81.2708 79.7208 82.4688 79.3375 82.9958C79.625 82.325 79.8167 81.9417 79.8167 81.9417Z" fill="#311B92"/>
</svg>
