<svg width="48" height="48" viewBox="0 0 48 48" fill="none" xmlns="http://www.w3.org/2000/svg">
<path d="M47 26V22L1 22V26L47 26Z" fill="#0D47A1"/>
<path d="M39 11C40.105 11 41 11.895 41 13V35C41 36.105 40.105 37 39 37C37.895 37 37 36.105 37 35V13C37 11.895 37.895 11 39 11Z" fill="#64B5F6"/>
<path d="M43 15C44.105 15 45 15.895 45 17V31C45 32.105 44.105 33 43 33C41.895 33 41 32.105 41 31V17C41 15.895 41.895 15 43 15Z" fill="#64B5F6"/>
<path d="M25 11C24.448 11 24 10.552 24 10V4C24 3.448 24.448 3 25 3C25.553 3 26 3.448 26 4V10C26 10.552 25.553 11 25 11Z" fill="#FFAB00"/>
<path d="M18 11.9999C17.603 11.9999 17.228 11.7619 17.071 11.3709L15.071 6.37095C14.866 5.85795 15.115 5.27595 15.628 5.07095C16.143 4.86795 16.723 5.11595 16.928 5.62795L18.928 10.6279C19.133 11.1409 18.884 11.7229 18.371 11.9279C18.25 11.9769 18.124 11.9999 18 11.9999Z" fill="#FFAB00"/>
<path d="M32 12C31.876 12 31.75 11.977 31.629 11.928C31.116 11.722 30.866 11.141 31.071 10.628L33.071 5.62795C33.276 5.11495 33.862 4.86795 34.371 5.07095C34.884 5.27695 35.134 5.85795 34.929 6.37095L32.929 11.371C32.772 11.762 32.396 12 32 12Z" fill="#FFAB00"/>
<path d="M39 11V37C40.105 37 41 36.105 41 35V13C41 11.895 40.105 11 39 11Z" fill="#1565C0"/>
<path d="M9 11C10.105 11 11 11.895 11 13V35C11 36.105 10.105 37 9 37C7.895 37 7 36.105 7 35V13C7 11.895 7.895 11 9 11Z" fill="#64B5F6"/>
<path d="M9 11V37C10.105 37 11 36.105 11 35V13C11 11.895 10.105 11 9 11Z" fill="#1565C0"/>
<path d="M43 15V33C44.105 33 45 32.105 45 31V17C45 15.895 44.105 15 43 15Z" fill="#1565C0"/>
<path d="M5 15C6.105 15 7 15.895 7 17V31C7 32.105 6.105 33 5 33C3.895 33 3 32.105 3 31V17C3 15.895 3.895 15 5 15Z" fill="#64B5F6"/>
<path d="M5 15V33C6.105 33 7 32.105 7 31V17C7 15.895 6.105 15 5 15Z" fill="#1565C0"/>
<path d="M31 46L30 33.668C31.754 32.982 33 31.285 33 29.289V25V24V19C33 17.895 32.105 17 31 17C29.895 17 29 17.895 29 19V18C29 16.895 28.105 16 27 16C25.895 16 25 16.895 25 18V17C25 15.895 24.105 15 23 15C21.895 15 21 15.895 21 17V18C21 16.895 20.105 16 19 16C17.895 16 17 16.895 17 18V26H14V27.716C14 30 15.786 33.253 19 33.875L18 46" fill="#FFCC80"/>
<path d="M14.844 25.984L17 30V26.005L14.844 25.984Z" fill="#F2A86B"/>
</svg>
