<svg width="48" height="48" viewBox="0 0 48 48" fill="none" xmlns="http://www.w3.org/2000/svg">
<path d="M38.889 28.323C38.8782 27.4793 38.6912 26.6472 38.34 25.88C38.288 25.775 38.223 25.671 38.157 25.566C38.091 25.461 37.987 25.305 37.87 25.135H37.857C37.6278 24.7833 37.37 24.4511 37.086 24.142C36.994 24.037 36.886 23.942 36.798 23.854C36.471 23.554 36.21 23.319 35.975 23.136C35.9738 23.1258 35.9692 23.1163 35.962 23.109C35.687 22.9 35.452 22.717 35.162 22.534C34.94 22.391 34.691 22.234 34.391 22.051C34.26 21.973 34.103 21.881 33.92 21.777C32.8163 21.2076 31.6555 20.7565 30.457 20.431C29.4996 20.1684 28.5262 19.968 27.543 19.831C27.177 19.779 26.798 19.74 26.406 19.701C24.6061 19.5526 22.7955 19.6005 21.006 19.844C20.9271 19.8466 20.8485 19.8556 20.771 19.871C20.64 19.884 20.51 19.91 20.379 19.936C19.5094 20.0596 18.6494 20.2431 17.805 20.485C16.4166 20.8821 15.0855 21.4576 13.845 22.197C13.7958 22.2349 13.7432 22.2684 13.688 22.297C13.414 22.467 13.166 22.637 12.957 22.797C12.5665 23.0769 12.1987 23.3872 11.857 23.725C11.674 23.908 11.53 24.051 11.426 24.156C10.957 24.6486 10.5568 25.2022 10.236 25.802C10.0765 26.0839 9.93686 26.3766 9.818 26.678C9.54802 27.3618 9.36817 28.0778 9.283 28.808C9.20342 29.3181 9.16397 29.8337 9.165 30.35C9.165 30.611 9.178 30.886 9.191 31.16C9.217 31.474 9.243 31.787 9.296 32.101C9.32241 32.3339 9.36147 32.5653 9.413 32.794C9.67292 34.1582 10.2895 35.4293 11.2 36.478C12.8491 38.1508 14.9014 39.3703 17.159 40.019C21.7611 41.4882 26.7138 41.4377 31.285 39.875C33.4851 39.1975 35.4712 37.9593 37.048 36.282C37.8708 35.2795 38.4684 34.1118 38.8 32.858V32.832C39.0334 32.0278 39.1697 31.1986 39.206 30.362V30.231C39.1416 29.5888 39.0357 28.9515 38.889 28.323ZM11.813 24.39C12.0319 24.1017 12.2766 23.8339 12.544 23.59C13.1138 23.0342 13.7503 22.5511 14.439 22.152L14.557 22.074C14.674 22.009 14.792 21.943 14.91 21.891C16.3252 21.1302 17.8439 20.5801 19.418 20.258C20.3009 20.0643 21.196 19.9306 22.097 19.858C23.7279 19.703 25.3708 19.7248 26.997 19.923C28.3061 20.0616 29.5978 20.333 30.852 20.733C31.7177 21.0065 32.5574 21.3566 33.361 21.779C33.561 21.87 33.753 21.979 33.936 22.079C33.9946 22.1088 34.0514 22.1422 34.106 22.179C34.9317 22.6625 35.688 23.2559 36.354 23.943C36.9811 24.5947 37.4588 25.3751 37.754 26.23C38.1349 27.4263 38.0367 28.7237 37.48 29.849C36.6853 31.3142 35.4743 32.5113 34 33.289C28.668 36.389 19.991 36.389 14.62 33.289C13.1141 32.5056 11.8799 31.2857 11.079 29.789C10.8007 29.2318 10.6356 28.6251 10.593 28.0038C10.5504 27.3825 10.6313 26.7589 10.831 26.169V26.156C10.9084 25.9162 11.0089 25.6844 11.131 25.464C11.131 25.451 11.144 25.451 11.144 25.437C11.323 25.0617 11.5477 24.7101 11.813 24.39Z" fill="url(#paint0_radial)"/>
<path opacity="0.6" d="M39.2 30.2309V30.3619C39.1637 31.1985 39.0274 32.0277 38.794 32.8319V32.8579L38.194 33.0579C37.58 33.2799 37.188 33.6719 37.188 34.1029L37.201 34.5869C37.201 35.6709 35.751 36.5469 33.96 36.5469H33.189C32.5577 36.5141 31.9386 36.7294 31.464 37.1469L31.072 37.5649C30.4577 38.0556 29.7273 38.3796 28.9513 38.5055C28.1753 38.6315 27.3799 38.5552 26.642 38.2839L25.976 38.0489C25.3254 37.8374 24.6238 37.842 23.976 38.0619L23.27 38.2969C22.6317 38.5137 21.9559 38.5977 21.284 38.5437C20.6121 38.4897 19.9584 38.2989 19.363 37.9829C19.1683 37.8786 18.9917 37.7435 18.84 37.5829L18.004 36.7209L17.834 36.5899H15.9C15.0961 36.604 14.3027 36.4056 13.6 36.0149C13.3353 35.8855 13.1085 35.6901 12.9414 35.4475C12.7743 35.2049 12.6726 34.9233 12.646 34.6299V33.6159L12.437 33.4069L10.937 32.8839C10.7055 32.8006 10.4825 32.6955 10.271 32.5699C10.231 32.5569 9.68297 32.2829 9.30397 32.0999C9.25097 31.7859 9.22497 31.4729 9.19897 31.1589C9.48697 30.8319 9.89197 30.5449 9.89197 30.0479L10.114 29.8129C10.1991 29.7379 10.2673 29.6455 10.314 29.5421C10.3607 29.4386 10.3848 29.3264 10.3848 29.2129C10.3848 29.0994 10.3607 28.9872 10.314 28.8838C10.2673 28.7803 10.1991 28.688 10.114 28.6129L10.009 28.5079C10.0951 27.7778 10.2752 27.0619 10.545 26.3779C10.6634 26.0767 10.8031 25.7843 10.963 25.5029L11.146 25.4369L11.538 25.2939C11.6466 25.2605 11.7518 25.2167 11.852 25.1629C12.0374 25.0906 12.1992 24.9681 12.3191 24.8092C12.439 24.6503 12.5123 24.4611 12.531 24.2629V23.7629C12.5283 23.7059 12.5326 23.6488 12.544 23.5929C12.5491 23.5346 12.5626 23.4774 12.584 23.4229C12.6595 23.1872 12.7893 22.9724 12.963 22.7959C13.2152 22.5377 13.5173 22.3336 13.851 22.1959C14.0322 22.1133 14.2203 22.0464 14.413 21.9959C14.57 21.9559 14.74 21.9169 14.913 21.8909C14.991 21.8779 15.069 21.8649 15.161 21.8519C15.3599 21.8256 15.5603 21.8126 15.761 21.8129H16.532C17.1623 21.8393 17.7791 21.6248 18.257 21.2129L18.662 20.7939C18.8819 20.5732 19.1383 20.3922 19.42 20.2589C19.7277 20.1107 20.0524 20.0008 20.387 19.9319C20.518 19.9059 20.648 19.8799 20.779 19.8669C20.8564 19.8515 20.935 19.8425 21.014 19.8399C21.3751 19.8052 21.7389 19.8099 22.099 19.8539C22.4378 19.8873 22.7712 19.9618 23.092 20.0759L23.759 20.2979C24.4068 20.5179 25.1084 20.5225 25.759 20.3109L26.451 20.0629C26.6287 19.997 26.8126 19.9494 27 19.9209C27.1793 19.8714 27.3633 19.8405 27.549 19.8289C28.5283 19.716 29.5186 19.9077 30.385 20.3779C30.411 20.3909 30.437 20.4169 30.463 20.4309C30.6016 20.5201 30.7326 20.6205 30.855 20.7309L30.908 20.7829L31.273 21.1749C31.3707 21.2718 31.4806 21.3555 31.6 21.4239C32.0352 21.666 32.5271 21.7878 33.025 21.7769H33.925C34.2274 21.7832 34.5286 21.8167 34.825 21.8769C35.1934 21.9406 35.5501 22.0596 35.883 22.2299C35.9643 22.2636 36.0432 22.303 36.119 22.3479C36.3279 22.4712 36.517 22.6253 36.68 22.8049C36.6874 22.8118 36.6924 22.8209 36.694 22.8309C36.9068 23.0513 37.0402 23.3363 37.073 23.6409V23.7329L37.086 24.1379V24.1899C37.1038 24.3697 37.1672 24.542 37.2701 24.6906C37.3729 24.8391 37.5119 24.959 37.674 25.0389C37.7333 25.0728 37.7944 25.1035 37.857 25.1309H37.87C37.987 25.3009 38.079 25.4579 38.157 25.5619C38.235 25.6659 38.288 25.7709 38.34 25.8759C38.771 26.6599 38.523 27.1829 38.64 28.1629C38.719 28.7159 39.176 29.6169 39.2 30.2309Z" fill="url(#paint1_radial)"/>
<path d="M9.29999 28.323C9.31638 28.6889 9.36863 29.0523 9.45599 29.408C9.38917 29.1119 9.3457 28.8109 9.32599 28.508C9.31699 28.454 9.31699 28.389 9.29999 28.323Z" fill="#FFAD4F"/>
<path d="M9.27696 27.5C9.26618 27.5559 9.26181 27.613 9.26396 27.67V27.2C9.26183 27.2785 9.26618 27.3571 9.27696 27.4349V27.5Z" fill="#FFAD4F"/>
<path d="M38.223 30.267C37.3846 31.814 36.1068 33.0782 34.551 33.9C28.918 37.172 19.751 37.172 14.077 33.9C12.4856 33.0715 11.1814 31.7819 10.335 30.2C10.0414 29.6113 9.86712 28.9704 9.82216 28.3142C9.77719 27.6579 9.86243 26.9992 10.073 26.376V26.36C10.821 24.496 12.2189 22.9659 14.008 22.053C19.64 18.781 28.808 18.767 34.482 22.053C36.317 22.9744 37.751 24.5362 38.513 26.443C38.9152 27.7071 38.8113 29.078 38.223 30.267Z" fill="#FFECBB"/>
<path d="M39.736 30.183V29.1C39.736 29.1 39.08 28.945 39.08 29.1C39.08 29.255 39.105 30.417 39.08 30.391C39.2936 30.3067 39.5128 30.2372 39.736 30.183Z" fill="#70C324"/>
<path d="M39.7 26.13L39.688 25.158C39.688 25.158 39.008 25.042 39.008 25.197C39.008 25.352 39.034 26.513 39.008 26.488C39.2303 26.3533 39.4615 26.2337 39.7 26.13Z" fill="#70C324"/>
<path d="M8.59997 30.268L8.58997 29.086C8.58997 29.086 9.19597 28.942 9.19597 29.097C9.19597 29.252 9.16997 30.414 9.19597 30.388C9.00049 30.3335 8.80129 30.2934 8.59997 30.268Z" fill="#70C324"/>
<path d="M8.553 26.327L8.547 25.158C8.547 25.158 9.227 25.042 9.227 25.197C9.227 25.352 9.201 26.513 9.227 26.488C9.00623 26.4192 8.78105 26.3654 8.553 26.327Z" fill="#71C324"/>
<path d="M35.4 21.346C34.6972 20.9558 33.9037 20.7584 33.1 20.774H32.3C31.8038 20.7831 31.3141 20.6613 30.88 20.421C30.7622 20.3512 30.654 20.2665 30.558 20.169L30.182 19.774C30.0267 19.6191 29.8523 19.4847 29.663 19.374C29.0645 19.0567 28.4072 18.8657 27.7318 18.8129C27.0565 18.7601 26.3775 18.8466 25.737 19.067L25.037 19.307C24.3875 19.523 23.6853 19.5212 23.037 19.302L22.378 19.077C21.6406 18.8059 20.8457 18.7294 20.0702 18.8548C19.2946 18.9802 18.5644 19.3033 17.95 19.793L17.536 20.213C17.0603 20.6294 16.4414 20.8445 15.81 20.813H15.045C13.257 20.813 11.814 21.688 11.812 22.763V23.253C11.812 23.683 11.442 24.079 10.819 24.294L10.155 24.524C8.61097 25.064 8.08597 26.254 8.98897 27.194L9.38897 27.614C9.47453 27.6886 9.54325 27.7805 9.59055 27.8837C9.63786 27.9868 9.66266 28.0989 9.66333 28.2124C9.66399 28.3259 9.64049 28.4382 9.59439 28.542C9.5483 28.6457 9.48066 28.7384 9.39597 28.814L9.01497 29.214C8.27397 29.998 8.53197 30.961 9.54897 31.57C9.76106 31.6958 9.98559 31.7993 10.219 31.879L11.719 32.399C11.786 32.469 11.861 32.544 11.928 32.614V33.625C11.9557 33.9178 12.0589 34.1984 12.2275 34.4394C12.3961 34.6805 12.6244 34.8736 12.89 35C13.5926 35.3904 14.3863 35.5871 15.19 35.57H17.12L17.287 35.7L18.123 36.57C18.2774 36.7285 18.4522 36.8657 18.643 36.978C19.2408 37.292 19.8962 37.4811 20.5694 37.5339C21.2426 37.5867 21.9195 37.502 22.559 37.285L23.259 37.045C23.908 36.8284 24.6099 36.8284 25.259 37.045L25.925 37.275C26.6625 37.5462 27.4574 37.6229 28.2331 37.4976C29.0089 37.3724 29.7393 37.0495 30.354 36.56L30.754 36.14C31.2292 35.7228 31.8484 35.5075 32.48 35.54H33.245C35.045 35.54 36.492 34.665 36.487 33.585L36.476 33.099C36.476 32.669 36.862 32.274 37.476 32.054L38.132 31.829C39.692 31.289 40.21 30.094 39.307 29.164L38.907 28.743C38.8222 28.6668 38.7543 28.5738 38.7076 28.4698C38.661 28.3658 38.6366 28.2533 38.636 28.1393C38.6355 28.0253 38.6587 27.9125 38.7044 27.8081C38.75 27.7037 38.817 27.61 38.901 27.533L39.273 27.138C40.02 26.36 39.773 25.396 38.752 24.786C38.5357 24.6583 38.3069 24.5534 38.069 24.473L37.378 24.227C37.2321 24.178 37.0916 24.114 36.959 24.036C36.7962 23.9574 36.6567 23.8378 36.5541 23.6889C36.4515 23.54 36.3895 23.3671 36.374 23.187L36.363 22.732C36.3368 22.4379 36.2345 22.1558 36.0662 21.9133C35.8979 21.6708 35.6693 21.4763 35.403 21.349" fill="url(#paint2_radial)"/>
<path d="M35.3869 20.3729C34.6841 19.9828 33.8906 19.7855 33.0869 19.8009H32.2869C31.7908 19.8099 31.3011 19.6881 30.8669 19.4479C30.7495 19.3781 30.6416 19.2934 30.5459 19.1959L30.1689 18.7959C30.0139 18.6408 29.8394 18.5064 29.6499 18.3959C29.0515 18.0789 28.3944 17.8881 27.7193 17.8353C27.0442 17.7825 26.3654 17.8688 25.7249 18.0889L25.0249 18.3299C24.3759 18.5465 23.674 18.5465 23.0249 18.3299L22.3669 18.1039C21.6294 17.8329 20.8344 17.7564 20.0586 17.8818C19.2829 18.0072 18.5525 18.3303 17.9379 18.8199L17.5249 19.2399C17.0488 19.6562 16.4296 19.8713 15.7979 19.8399H15.0299C13.2419 19.8449 11.7999 20.7149 11.7969 21.7899V22.2799C11.7969 22.7109 11.4269 23.1059 10.8049 23.3209L10.1409 23.5509C8.59694 24.0909 8.07094 25.2809 8.97394 26.2209L9.37394 26.6409C9.45944 26.7156 9.52808 26.8076 9.5753 26.9108C9.62252 27.014 9.64723 27.1261 9.6478 27.2396C9.64836 27.3531 9.62477 27.4654 9.57859 27.5691C9.53241 27.6728 9.46469 27.7654 9.37994 27.8409L8.99994 28.2409C8.25794 29.0249 8.51694 29.9879 9.53294 30.5969C9.74529 30.7229 9.97017 30.8265 10.2039 30.9059L11.7039 31.4259C11.7709 31.4959 11.8459 31.5709 11.9129 31.6409L11.9189 32.6519C11.9451 32.9449 12.0469 33.2261 12.2143 33.468C12.3817 33.7099 12.609 33.9042 12.8739 34.0319C13.5767 34.4221 14.3704 34.6187 15.1739 34.6019H17.1029L17.2699 34.7319L18.1059 35.6019C18.2603 35.7606 18.4352 35.8978 18.6259 36.0099C19.2239 36.324 19.8795 36.5131 20.5529 36.5659C21.2263 36.6187 21.9033 36.534 22.5429 36.3169L23.2429 36.0769C23.892 35.8603 24.5939 35.8603 25.2429 36.0769L25.9099 36.3069C26.6473 36.5782 27.442 36.6548 28.2176 36.5296C28.9932 36.4044 29.7234 36.0814 30.3379 35.5919L30.7379 35.1719C31.2137 34.7549 31.8331 34.5397 32.4649 34.5719H33.2299C35.0299 34.5719 36.4769 33.6969 36.4709 32.6169L36.4599 32.1309C36.4599 31.7009 36.8459 31.3059 37.4599 31.0859L38.1149 30.8609C39.6759 30.3209 40.1929 29.1259 39.2899 28.1959L38.8899 27.7759C38.8051 27.6998 38.7371 27.6067 38.6903 27.5027C38.6436 27.3987 38.6191 27.286 38.6184 27.172C38.6178 27.058 38.641 26.945 38.6865 26.8405C38.7321 26.736 38.799 26.6421 38.8829 26.5649L39.2549 26.1699C40.0019 25.3919 39.7549 24.4279 38.7349 23.8179C38.5187 23.6903 38.2898 23.5854 38.0519 23.5049L37.3599 23.2599C37.2142 23.2102 37.0738 23.1459 36.9409 23.0679C36.7783 22.9892 36.6389 22.8695 36.5363 22.7207C36.4338 22.5719 36.3716 22.399 36.3559 22.2189L36.3459 21.7639C36.3191 21.4701 36.2165 21.1882 36.0483 20.9459C35.88 20.7035 35.6518 20.5088 35.3859 20.3809" fill="url(#paint3_radial)"/>
<path d="M34.919 20.244C34.2757 19.886 33.549 19.7052 32.813 19.72H32.083C31.6288 19.7285 31.1804 19.6171 30.783 19.397C30.6751 19.3335 30.5762 19.2558 30.489 19.166L30.144 18.805C30.0028 18.6618 29.8435 18.5377 29.67 18.436C29.1225 18.146 28.5213 17.9714 27.9036 17.9231C27.2859 17.8748 26.6649 17.9537 26.079 18.155L25.441 18.375C24.8459 18.5745 24.202 18.5745 23.607 18.375L23.007 18.17C22.3324 17.9218 21.6053 17.8516 20.8958 17.9662C20.1862 18.0807 19.5181 18.3762 18.956 18.824L18.578 19.208C18.1426 19.5893 17.5759 19.7862 16.998 19.757H16.298C14.662 19.762 13.343 20.557 13.34 21.541V21.99C13.34 22.383 13.002 22.744 12.432 22.941L11.825 23.152C10.412 23.646 9.93096 24.735 10.758 25.595L11.125 25.979C11.2037 26.0472 11.267 26.1314 11.3105 26.2261C11.3541 26.3207 11.3769 26.4235 11.3774 26.5277C11.378 26.6318 11.3563 26.7349 11.3138 26.83C11.2713 26.9251 11.209 27.01 11.131 27.079L10.783 27.445C10.104 28.162 10.341 29.045 11.271 29.601C11.4653 29.7155 11.6706 29.8099 11.884 29.883L13.256 30.359C13.317 30.423 13.386 30.492 13.447 30.559L13.452 31.483C13.4758 31.7511 13.5689 32.0083 13.7221 32.2296C13.8753 32.4508 14.0834 32.6284 14.326 32.745C14.9675 33.1016 15.6921 33.2818 16.426 33.267H18.2L18.352 33.386L19.117 34.186C19.2585 34.3309 19.4185 34.4563 19.593 34.559C20.1399 34.8464 20.7396 35.0195 21.3556 35.0678C21.9715 35.1161 22.5909 35.0386 23.176 34.84L23.814 34.62C24.4087 34.421 25.0522 34.421 25.647 34.62L26.257 34.83C26.9315 35.0781 27.6586 35.1482 28.3681 35.0336C29.0776 34.9191 29.7457 34.6237 30.308 34.176L30.671 33.792C31.1057 33.4104 31.6722 33.2134 32.25 33.243H32.95C34.593 33.243 35.92 32.443 35.915 31.454L35.905 31.01C35.905 30.617 36.258 30.255 36.82 30.054L37.42 29.848C38.847 29.354 39.32 28.261 38.495 27.41L38.127 27.026C38.0493 26.9564 37.9871 26.8713 37.9443 26.7762C37.9016 26.6811 37.8792 26.5781 37.8786 26.4739C37.878 26.3696 37.8993 26.2664 37.941 26.1708C37.9828 26.0752 38.0441 25.9895 38.121 25.919L38.462 25.557C39.145 24.845 38.917 23.964 37.986 23.405C37.788 23.2885 37.5786 23.1927 37.361 23.119L36.728 22.895C36.5946 22.8497 36.4663 22.7907 36.345 22.719C36.1961 22.6473 36.0685 22.538 35.9747 22.4019C35.8809 22.2658 35.8241 22.1077 35.81 21.943L35.8 21.527C35.7755 21.2582 35.6818 21.0004 35.5279 20.7787C35.374 20.5569 35.1652 20.3789 34.922 20.262" fill="url(#paint4_linear)"/>
<path d="M21.685 26.625C21.3264 25.9163 20.7565 25.3365 20.054 24.966C18.6552 24.2536 17.1077 23.8822 15.538 23.8822C13.9682 23.8822 12.4208 24.2536 11.022 24.966C10.3239 25.3361 9.75991 25.9165 9.40997 26.625H9.17297V27.6C9.23313 28.1588 9.43861 28.6922 9.76898 29.1469C10.0993 29.6017 10.5431 29.962 11.056 30.1919C12.4524 30.9019 13.9969 31.272 15.5635 31.272C17.1301 31.272 18.6745 30.9019 20.071 30.1919C20.5818 29.9623 21.0227 29.6015 21.3488 29.1462C21.675 28.691 21.8748 28.1575 21.928 27.6V26.6259L21.685 26.625ZM19.148 29.6569C18.0378 30.2221 16.8097 30.5167 15.564 30.5167C14.3182 30.5167 13.0901 30.2221 11.98 29.6569C9.99397 28.511 9.97497 26.647 11.948 25.5C13.0612 24.935 14.292 24.6405 15.5405 24.6405C16.7889 24.6405 18.0197 24.935 19.133 25.5C21.119 26.647 21.121 28.511 19.148 29.6569Z" fill="#FFEAD4"/>
<path d="M11.98 28.9C9.99396 27.754 9.97496 25.89 11.948 24.743C13.0612 24.178 14.292 23.8835 15.5405 23.8835C16.7889 23.8835 18.0197 24.178 19.133 24.743C21.119 25.89 21.121 27.754 19.148 28.9C18.0378 29.4651 16.8097 29.7598 15.564 29.7598C14.3182 29.7598 13.0901 29.4651 11.98 28.9ZM20.054 24.209C18.6552 23.4966 17.1077 23.1252 15.538 23.1252C13.9682 23.1252 12.4207 23.4966 11.022 24.209C8.54396 25.649 8.55696 27.99 11.06 29.435C12.4564 30.145 14.0009 30.515 15.5675 30.515C17.134 30.515 18.6785 30.145 20.075 29.435C22.561 27.99 22.548 25.649 20.054 24.209Z" fill="#FEF8E8"/>
<path d="M38.69 28.4C38.3886 27.8049 37.9099 27.3182 37.32 27.007C36.1457 26.409 34.8467 26.0973 33.529 26.0973C32.2112 26.0973 30.9122 26.409 29.738 27.007C29.1516 27.3177 28.6779 27.8051 28.384 28.4H28.184V29.218C28.2342 29.6871 28.4066 30.1349 28.6838 30.5167C28.961 30.8985 29.3334 31.201 29.764 31.394C30.9364 31.9901 32.2332 32.3007 33.5485 32.3007C34.8638 32.3007 36.1605 31.9901 37.333 31.394C37.7612 31.2008 38.1307 30.8977 38.404 30.5155C38.6773 30.1334 38.8446 29.6857 38.889 29.218V28.4H38.69ZM36.56 30.946C35.628 31.4208 34.5969 31.6682 33.551 31.6682C32.505 31.6682 31.4739 31.4208 30.542 30.946C28.875 29.984 28.859 28.419 30.515 27.456C31.4498 26.9817 32.4832 26.7345 33.5315 26.7345C34.5797 26.7345 35.6132 26.9817 36.548 27.456C38.215 28.417 38.217 29.982 36.56 30.944V30.946Z" fill="#FFEAD4"/>
<path d="M30.542 30.31C28.875 29.348 28.859 27.783 30.515 26.82C31.4498 26.3457 32.4832 26.0986 33.5315 26.0986C34.5797 26.0986 35.6132 26.3457 36.548 26.82C38.215 27.783 38.217 29.348 36.56 30.31C35.628 30.7848 34.5969 31.0323 33.551 31.0323C32.505 31.0323 31.4739 30.7848 30.542 30.31ZM37.32 26.371C36.1457 25.773 34.8467 25.4613 33.529 25.4613C32.2112 25.4613 30.9122 25.773 29.738 26.371C27.657 27.581 27.668 29.546 29.769 30.759C30.9413 31.3555 32.2381 31.6665 33.5535 31.6665C34.8689 31.6665 36.1656 31.3555 37.338 30.759C39.426 29.546 39.415 27.58 37.32 26.371Z" fill="#FEF8E8"/>
<path d="M29.0479 31.229C28.7075 30.5571 28.1665 30.0077 27.4999 29.657C26.1745 28.9821 24.7083 28.6302 23.2209 28.6302C21.7336 28.6302 20.2673 28.9821 18.9419 29.657C18.2805 30.0079 17.746 30.5578 17.4139 31.229H17.1899V32.152C17.2471 32.6825 17.4426 33.1887 17.7567 33.62C18.0708 34.0514 18.4926 34.3927 18.9799 34.61C20.3032 35.2825 21.7666 35.633 23.2509 35.633C24.7353 35.633 26.1987 35.2825 27.5219 34.61C28.0053 34.3916 28.4224 34.0493 28.731 33.6178C29.0395 33.1864 29.2285 32.681 29.2789 32.153V31.23L29.0479 31.229ZM26.6479 34.103C25.596 34.6384 24.4323 34.9175 23.2519 34.9175C22.0716 34.9175 20.9079 34.6384 19.8559 34.103C17.9739 33.017 17.9559 31.25 19.8259 30.164C20.8806 29.628 22.0469 29.3487 23.2299 29.3487C24.413 29.3487 25.5793 29.628 26.6339 30.164C28.5119 31.25 28.5139 33.017 26.6439 34.1L26.6479 34.103Z" fill="#FFEAD4"/>
<path d="M19.8519 33.388C17.9699 32.301 17.9519 30.535 19.8219 29.448C20.8767 28.9126 22.043 28.6335 23.2259 28.6335C24.4089 28.6335 25.5751 28.9126 26.6299 29.448C28.5119 30.535 28.5139 32.301 26.6439 33.387C25.592 33.9227 24.4284 34.2019 23.2479 34.2019C22.0675 34.2019 20.9038 33.9227 19.8519 33.387V33.388ZM27.5019 28.941C26.1767 28.2657 24.7104 27.9136 23.2229 27.9136C21.7355 27.9136 20.2692 28.2657 18.9439 28.941C16.5959 30.305 16.6079 32.524 18.9799 33.893C20.3031 34.566 21.7665 34.9168 23.2509 34.9168C24.7354 34.9168 26.1988 34.566 27.5219 33.893C29.8779 32.524 29.8659 30.305 27.5019 28.941Z" fill="#FEF8E8"/>
<path d="M34.781 23.4C34.4294 22.7038 33.8703 22.1339 33.181 21.769C31.8061 21.0685 30.285 20.7032 28.742 20.7032C27.1989 20.7032 25.6778 21.0685 24.303 21.769C23.615 22.1322 23.059 22.7029 22.714 23.4H22.481V24.357C22.5403 24.9063 22.7424 25.4305 23.0672 25.8775C23.3919 26.3245 23.8279 26.6788 24.332 26.905C25.7047 27.6031 27.2229 27.967 28.763 27.967C30.303 27.967 31.8212 27.6031 33.194 26.905C33.6954 26.6787 34.128 26.3239 34.448 25.8764C34.768 25.4289 34.9639 24.9047 35.016 24.357V23.4H34.781ZM32.288 26.381C31.1965 26.9366 29.9892 27.2263 28.7645 27.2263C27.5397 27.2263 26.3324 26.9366 25.241 26.381C23.289 25.254 23.27 23.422 25.209 22.294C26.3034 21.7382 27.5135 21.4485 28.741 21.4485C29.9684 21.4485 31.1785 21.7382 32.273 22.294C34.225 23.425 34.227 25.258 32.288 26.385V26.381Z" fill="#FFEAD4"/>
<path d="M25.241 25.643C23.289 24.516 23.27 22.683 25.209 21.556C26.3034 21.0002 27.5135 20.7105 28.741 20.7105C29.9685 20.7105 31.1786 21.0002 32.273 21.556C34.225 22.683 34.227 24.516 32.288 25.643C31.1966 26.1986 29.9892 26.4882 28.7645 26.4882C27.5398 26.4882 26.3324 26.1986 25.241 25.643ZM33.177 21.031C31.8022 20.3304 30.281 19.9652 28.738 19.9652C27.195 19.9652 25.6738 20.3304 24.299 21.031C21.863 22.447 21.876 24.748 24.336 26.169C25.7088 26.8669 27.227 27.2306 28.767 27.2306C30.307 27.2306 31.8252 26.8669 33.198 26.169C35.643 24.749 35.63 22.447 33.177 21.032" fill="#FEF8E8"/>
<path d="M11.529 28.137C11.617 28.268 11.729 28.399 11.835 28.53C11.7983 28.4943 11.7648 28.4555 11.735 28.414C11.66 28.326 11.588 28.225 11.529 28.137Z" fill="#B44F49"/>
<path d="M17.836 32.192C18.286 32.322 18.722 32.453 19.129 32.555C18.6918 32.4572 18.2602 32.336 17.836 32.192Z" fill="#B44F49"/>
<path d="M38.289 19.536C37.8012 18.6714 37.164 17.9001 36.407 17.258C34.3698 15.5067 31.9207 14.3023 29.29 13.758C26.6655 13.2206 23.9681 13.139 21.316 13.517C18.5002 13.7719 15.7965 14.7431 13.462 16.338C12.1676 17.142 11.1242 18.2925 10.45 19.659C9.91988 20.8079 9.67062 22.0664 9.72279 23.3307C9.77495 24.5949 10.127 25.8286 10.75 26.93C12.172 29.649 15.05 31.32 17.985 32.23C22.5737 33.6551 27.5051 33.5215 32.01 31.85C34.7838 30.9402 37.12 29.0311 38.564 26.494C39.0723 25.576 39.2558 24.5133 39.085 23.478C39.1248 22.2842 38.9266 21.0944 38.502 19.978C38.434 19.8273 38.363 19.68 38.289 19.536ZM15.046 15.617C20.19 12.638 28.56 12.638 33.733 15.617C36.159 17.012 37.453 18.828 37.613 20.659C37.6967 21.8715 37.3291 23.0721 36.581 24.03C35.8253 25.0162 34.8759 25.8374 33.791 26.443C28.647 29.421 20.277 29.421 15.104 26.443C13.9757 25.8337 12.9938 24.9857 12.227 23.958C11.4905 22.9902 11.1385 21.784 11.239 20.572C11.413 18.77 12.677 17 15.046 15.617Z" fill="url(#paint5_radial)"/>
<path d="M38.749 21.164C38.8397 22.4811 38.4405 23.7853 37.628 24.826C36.8074 25.897 35.7762 26.7886 34.598 27.446C29.011 30.681 19.92 30.681 14.298 27.446C13.0728 26.7834 12.0064 25.862 11.173 24.746C10.3734 23.695 9.99112 22.3851 10.1 21.069C10.29 19.112 11.663 17.187 14.235 15.687C19.822 12.452 28.913 12.452 34.535 15.687C37.17 17.2 38.575 19.175 38.749 21.164Z" fill="#9B3E3E"/>
<path d="M24.462 28.419C21.1779 28.4927 17.9297 27.7239 15.027 26.186C13.9851 25.6265 13.0761 24.8488 12.362 23.906C11.7644 23.142 11.4744 22.1821 11.549 21.215C11.701 19.656 12.915 18.14 14.97 16.942C17.8606 15.4061 21.0975 14.6389 24.37 14.714C27.6541 14.6402 30.9023 15.409 33.805 16.947C35.92 18.162 37.16 19.704 37.297 21.29C37.3563 22.2571 37.0545 23.2118 36.45 23.969C35.7453 24.8757 34.8651 25.6311 33.862 26.19C30.9714 27.7262 27.7346 28.4938 24.462 28.419Z" fill="#913B3B"/>
<path d="M30.564 14.648C25.852 13.337 21.71 13.233 17.295 11.561C14.6264 16.0859 11.2745 20.1711 7.35797 23.672C12.252 23.972 30.684 29.015 29.381 32.649C31.866 25.719 34.9 22.77 39.4 17.44C39.4 17.44 35.276 15.959 30.564 14.648Z" fill="url(#paint6_radial)"/>
<path d="M38.107 17.037H37.792C37.6314 16.5254 37.4034 16.0374 37.114 15.586C36.2479 14.2915 35.0751 13.2314 33.7 12.5C33.6607 12.4674 33.6146 12.4442 33.565 12.432C31.2986 11.187 28.7872 10.4532 26.207 10.282C23.5252 10.0252 20.8191 10.2701 18.227 11.004C16.0774 11.5832 14.0968 12.6661 12.449 14.163C11.6117 14.9558 10.986 15.9456 10.629 17.042H10.349V19.068C10.3505 19.345 10.3759 19.6214 10.425 19.894C10.7695 21.6964 11.7722 23.3061 13.238 24.41C15.2842 25.9709 17.6924 26.9882 20.238 27.367C26.253 28.476 32.72 26.981 35.979 23.755C37.0663 22.7419 37.7822 21.3933 38.012 19.925V19.9C38.0596 19.6509 38.082 19.3976 38.079 19.144L38.09 18.944H38.1L38.107 17.037ZM32.881 22.574C28.126 25.329 20.399 25.329 15.644 22.574C14.1554 21.8212 12.9778 20.5703 12.316 19.039H14.616V17.039H12.081C12.287 15.417 13.447 13.827 15.581 12.581C20.331 9.82302 28.042 9.84002 32.83 12.6C34.967 13.839 36.145 15.423 36.372 17.042H34.957V19.042L36.178 19C35.5429 20.548 34.3728 21.8164 32.881 22.574Z" fill="url(#paint7_radial)"/>
<path d="M34.077 22.479C28.665 25.361 19.869 25.361 14.457 22.479C9.00699 19.597 8.98799 14.923 14.38 12.023C19.792 9.141 28.57 9.159 34.02 12.041C39.431 14.923 39.489 19.6 34.077 22.479Z" fill="#FF5C3D"/>
<path d="M24.266 22.961C21.1465 23.0339 18.0546 22.3616 15.247 21C13.207 19.921 12.038 18.553 12.033 17.244C12.028 15.935 13.175 14.582 15.176 13.506C17.9703 12.1502 21.0479 11.4806 24.153 11.553C27.2937 11.4838 30.406 12.1611 33.234 13.529C35.261 14.609 36.428 15.981 36.428 17.293C36.428 18.586 35.283 19.937 33.288 20.999C30.4795 22.3614 27.3866 23.0341 24.266 22.961Z" fill="#FF6F5C"/>
<path opacity="0.4" d="M38.107 17.037H37.792C37.6314 16.5254 37.4034 16.0374 37.114 15.586C36.2479 14.2915 35.0751 13.2314 33.7 12.5C33.6607 12.4674 33.6146 12.4442 33.565 12.432C31.2986 11.187 28.7872 10.4532 26.207 10.282C23.5252 10.0252 20.8191 10.2701 18.227 11.004C16.0774 11.5832 14.0968 12.6661 12.449 14.163C11.6117 14.9558 10.986 15.9456 10.629 17.042H10.349V19.068C10.3505 19.345 10.3759 19.6214 10.425 19.894C10.7695 21.6964 11.7722 23.3061 13.238 24.41C15.2842 25.9709 17.6924 26.9882 20.238 27.367C26.253 28.476 32.72 26.981 35.979 23.755C37.0663 22.7419 37.7822 21.3933 38.012 19.925V19.9C38.0596 19.6509 38.082 19.3976 38.079 19.144L38.09 18.944H38.1L38.107 17.037ZM32.881 22.574C28.126 25.329 20.399 25.329 15.644 22.574C14.1554 21.8212 12.9778 20.5703 12.316 19.039H14.616V17.039H12.081C12.287 15.417 13.447 13.827 15.581 12.581C20.331 9.82302 28.042 9.84002 32.83 12.6C34.967 13.839 36.145 15.423 36.372 17.042H34.957V19.042L36.178 19C35.5429 20.548 34.3728 21.8164 32.881 22.574Z" fill="url(#paint8_radial)"/>
<path d="M31.737 7.84399C26.9586 6.12372 21.7325 6.10817 16.944 7.79999C13.255 9.08899 8.93799 12.423 8.93799 17.74C8.93799 23.189 14.692 25.423 24.138 25.423C33.377 25.423 39.538 23.328 39.538 17.851C39.539 12.436 35.485 9.27999 31.737 7.84399Z" fill="url(#paint9_radial)"/>
<path d="M16.283 14.5329C15.935 14.9749 15.409 15.1419 15.206 14.9829C15.003 14.8239 15.031 14.253 15.38 13.81C15.729 13.367 16.48 12.9519 16.68 13.1099C16.88 13.2679 16.631 14.0899 16.283 14.5329Z" fill="#FFEDCC"/>
<path d="M11.239 17.465C10.802 17.498 10.425 17.23 10.407 16.985C10.389 16.74 10.726 16.398 11.164 16.366C11.602 16.334 12.238 16.602 12.257 16.847C12.276 17.092 11.676 17.432 11.239 17.465Z" fill="#FFEDCC"/>
<path d="M12.82 13.552C12.574 13.892 12.146 14.002 11.955 13.864C11.8491 13.7303 11.7926 13.5641 11.7952 13.3935C11.7977 13.223 11.8591 13.0585 11.969 12.928C12.215 12.588 12.806 12.287 12.996 12.428C13.186 12.569 13.066 13.211 12.82 13.552Z" fill="#FFEDCC"/>
<path d="M21.831 13.453C21.983 13.901 21.805 14.367 21.554 14.453C21.303 14.539 20.854 14.277 20.703 13.83C20.552 13.383 20.66 12.643 20.911 12.558C21.162 12.473 21.679 13.005 21.831 13.453Z" fill="#FFEDCC"/>
<path d="M26.07 17.111C25.931 17.611 25.478 17.932 25.195 17.854C25.013 17.7439 24.8746 17.5742 24.8032 17.3738C24.7318 17.1734 24.7317 16.9545 24.803 16.754C24.942 16.254 25.503 15.64 25.784 15.718C26.065 15.796 26.209 16.606 26.07 17.111Z" fill="#FFEDCC"/>
<path d="M19.355 17.649C19.47 18.235 19.213 18.779 18.921 18.836C18.629 18.893 18.161 18.482 18.047 17.896C17.933 17.31 18.147 16.414 18.437 16.357C18.727 16.3 19.241 17.064 19.355 17.649Z" fill="#FFEDCC"/>
<path d="M29.741 14.8229C29.723 15.2229 29.441 15.5349 29.215 15.5229C28.989 15.5109 28.715 15.1689 28.736 14.7689C28.757 14.3689 29.067 13.8209 29.291 13.8309C29.515 13.8409 29.759 14.4229 29.741 14.8229Z" fill="#FFEDCC"/>
<path d="M37.1719 13.7059C37.4929 13.9439 37.5929 14.3539 37.4599 14.5339C37.3312 14.6335 37.1719 14.6855 37.0092 14.6811C36.8464 14.6768 36.6902 14.6163 36.5669 14.5099C36.2459 14.2719 35.9669 13.7099 36.0989 13.5249C36.2309 13.3399 36.8499 13.4669 37.1719 13.7059Z" fill="#FFEDCC"/>
<path d="M33.5 11.592C33.6561 11.7185 33.7629 11.8957 33.802 12.0928C33.8411 12.2899 33.81 12.4945 33.714 12.671C33.5367 12.7722 33.3298 12.8091 33.1285 12.7753C32.9272 12.7416 32.7436 12.6394 32.609 12.486C32.251 12.133 32.002 11.381 32.199 11.18C32.396 10.979 33.141 11.239 33.5 11.592Z" fill="#FFEDCC"/>
<path d="M34.063 16.8469C33.773 17.2789 33.248 17.4349 33.005 17.2719C32.8681 17.1107 32.791 16.9072 32.7866 16.6957C32.7823 16.4842 32.8509 16.2777 32.981 16.1109C33.271 15.6789 33.989 15.2809 34.232 15.4429C34.475 15.6049 34.353 16.4139 34.063 16.8469Z" fill="#FFEDCC"/>
<path d="M25.738 11.2769C26.2 11.5009 26.424 11.9929 26.299 12.2519C26.1603 12.4077 25.9722 12.5108 25.7663 12.544C25.5605 12.5771 25.3495 12.5383 25.169 12.4339C24.707 12.2109 24.22 11.5639 24.345 11.3059C24.47 11.0479 25.277 11.0539 25.738 11.2769Z" fill="#FFEDCC"/>
<path d="M20.3879 9.79997C20.2049 10.164 19.8109 10.335 19.6069 10.232C19.4846 10.1201 19.4047 9.96941 19.3808 9.80536C19.3569 9.64131 19.3905 9.47405 19.4759 9.33197C19.6599 8.96797 20.1759 8.58898 20.3829 8.69198C20.5899 8.79498 20.5719 9.43197 20.3879 9.79997Z" fill="#FFEDCC"/>
<path d="M16.022 10.253C16.134 10.645 15.961 11.038 15.742 11.101C15.523 11.164 15.148 10.921 15.035 10.529C14.922 10.137 15.048 9.50598 15.267 9.44298C15.486 9.37998 15.91 9.86098 16.022 10.253Z" fill="#FFEDCC"/>
<path d="M24.8 8.32601C24.9467 8.43922 25.049 8.60029 25.0892 8.78117C25.1294 8.96206 25.1049 9.15132 25.02 9.316C24.859 9.41238 24.6697 9.45038 24.4839 9.42361C24.2981 9.39684 24.1273 9.30693 24 9.169C23.662 8.852 23.416 8.164 23.594 7.975C23.772 7.786 24.462 8.00901 24.8 8.32601Z" fill="#FFEDCC"/>
<path d="M29.63 9.19998C29.7098 9.35295 29.7335 9.52904 29.697 9.69766C29.6604 9.86629 29.566 10.0168 29.43 10.123C29.206 10.213 28.785 9.99798 28.624 9.59798C28.463 9.19798 28.524 8.51998 28.749 8.42998C28.974 8.33998 29.469 8.79998 29.63 9.19998Z" fill="#FFEDCC"/>
<defs>
<radialGradient id="paint0_radial" cx="0" cy="0" r="1" gradientUnits="userSpaceOnUse" gradientTransform="translate(16.9781 42.895) rotate(0.171887) scale(72.8013 17.0356)">
<stop stop-color="#D98437"/>
<stop offset="0.014" stop-color="#D98538"/>
<stop offset="0.625" stop-color="#E79D4C"/>
<stop offset="1" stop-color="#ECA654"/>
</radialGradient>
<radialGradient id="paint1_radial" cx="0" cy="0" r="1" gradientUnits="userSpaceOnUse" gradientTransform="translate(-0.289559 39.0585) rotate(-1.48935) scale(83.6673 21.0851)">
<stop stop-color="#AB4D00" stop-opacity="0"/>
<stop offset="0.253" stop-color="#AB4D00" stop-opacity="0.34"/>
<stop offset="0.498" stop-color="#AB4D00" stop-opacity="0.624"/>
<stop offset="0.711" stop-color="#AB4D00" stop-opacity="0.829"/>
<stop offset="0.886" stop-color="#AB4D00" stop-opacity="0.954"/>
<stop offset="1" stop-color="#AB4D00"/>
</radialGradient>
<radialGradient id="paint2_radial" cx="0" cy="0" r="1" gradientUnits="userSpaceOnUse" gradientTransform="translate(24.147 28.1825) scale(16.524 12.7565)">
<stop stop-color="#B2ED48"/>
<stop offset="0.401" stop-color="#90D735"/>
<stop offset="0.773" stop-color="#78C828"/>
<stop offset="1" stop-color="#6FC223"/>
</radialGradient>
<radialGradient id="paint3_radial" cx="0" cy="0" r="1" gradientUnits="userSpaceOnUse" gradientTransform="translate(626.259 494.871) scale(813.766 423.894)">
<stop stop-color="#B2ED48"/>
<stop offset="0.401" stop-color="#90D735"/>
<stop offset="0.773" stop-color="#78C828"/>
<stop offset="1" stop-color="#6FC223"/>
</radialGradient>
<linearGradient id="paint4_linear" x1="25.142" y1="51.453" x2="24.475" y2="19.173" gradientUnits="userSpaceOnUse">
<stop stop-color="#6FC223"/>
<stop offset="0.104" stop-color="#6FC223" stop-opacity="0.954"/>
<stop offset="0.274" stop-color="#6FC223" stop-opacity="0.827"/>
<stop offset="0.488" stop-color="#6FC223" stop-opacity="0.621"/>
<stop offset="0.739" stop-color="#6FC223" stop-opacity="0.336"/>
<stop offset="1" stop-color="#6FC223" stop-opacity="0"/>
</linearGradient>
<radialGradient id="paint5_radial" cx="0" cy="0" r="1" gradientUnits="userSpaceOnUse" gradientTransform="translate(20.265 15.704) scale(40.58)">
<stop stop-color="#B44F49"/>
<stop offset="0.056" stop-color="#AE4C47"/>
<stop offset="0.47" stop-color="#863737"/>
<stop offset="0.799" stop-color="#6E2A2E"/>
<stop offset="1" stop-color="#65252A"/>
</radialGradient>
<radialGradient id="paint6_radial" cx="0" cy="0" r="1" gradientUnits="userSpaceOnUse" gradientTransform="translate(15.862 22.148) scale(22.007)">
<stop stop-color="#FFC018"/>
<stop offset="0.442" stop-color="#FFB614"/>
<stop offset="1" stop-color="#FFA20C"/>
</radialGradient>
<radialGradient id="paint7_radial" cx="0" cy="0" r="1" gradientUnits="userSpaceOnUse" gradientTransform="translate(10.581 17.717) scale(38.041)">
<stop stop-color="#FF473D"/>
<stop offset="0.313" stop-color="#F83D34"/>
<stop offset="0.851" stop-color="#E6211A"/>
<stop offset="1" stop-color="#E01812"/>
</radialGradient>
<radialGradient id="paint8_radial" cx="0" cy="0" r="1" gradientUnits="userSpaceOnUse" gradientTransform="translate(20.2127 25.4776) rotate(6.67978) scale(8.48998 3.8885)">
<stop stop-color="#FF9A8C"/>
<stop offset="0.086" stop-color="#FF9A8C" stop-opacity="0.959"/>
<stop offset="0.233" stop-color="#FF9A8C" stop-opacity="0.85"/>
<stop offset="0.425" stop-color="#FF9A8C" stop-opacity="0.671"/>
<stop offset="0.654" stop-color="#FF9A8C" stop-opacity="0.424"/>
<stop offset="0.912" stop-color="#FF9A8C" stop-opacity="0.113"/>
<stop offset="1" stop-color="#FF9A8C" stop-opacity="0"/>
</radialGradient>
<radialGradient id="paint9_radial" cx="0" cy="0" r="1" gradientUnits="userSpaceOnUse" gradientTransform="translate(18.9652 9.487) rotate(29.638) scale(24.734 17.9321)">
<stop stop-color="#EDA855"/>
<stop offset="1" stop-color="#D97E39"/>
</radialGradient>
</defs>
</svg>
