<svg width="56" height="56" viewBox="0 0 56 56" fill="none" xmlns="http://www.w3.org/2000/svg">
<path d="M14 47.6V41.0667C14 35.98 16.7701 31.2872 21.2277 28.8176L22.7024 28L21.2277 27.1824C16.7701 24.7128 14 20.02 14 14.9334V8.40002H42V14.9334C42 20.02 39.2299 24.7128 34.7723 27.1824L33.2976 28L34.7723 28.8176C39.2299 31.2872 42 35.98 42 41.0667V47.6H14Z" fill="#F2FAFF"/>
<path d="M41.0666 9.33334V14.9333C41.0666 19.6803 38.4813 24.0613 34.3186 26.3667L31.373 28L34.3205 29.6333C38.4813 31.9387 41.0666 36.3197 41.0666 41.0667V46.6667H14.9333V41.0667C14.9333 36.3197 17.5186 31.9387 21.6813 29.6333L24.6269 28L21.6795 26.3667C17.5187 24.0613 14.9333 19.6803 14.9333 14.9333V9.33334H41.0666ZM42.9333 7.46667H13.0667V14.9333C13.0667 20.5595 16.1803 25.4539 20.776 28C16.1803 30.5461 13.0667 35.4405 13.0667 41.0667V48.5333H42.9333V41.0667C42.9333 35.4405 39.8197 30.5461 35.224 28C39.8197 25.4539 42.9333 20.5595 42.9333 14.9333V7.46667Z" fill="#788B9C"/>
<path d="M13.9999 10.2667V6.53338H10.2666V2.80005H45.7333V6.53338H41.9999V10.2667H13.9999Z" fill="#8BB7F0"/>
<path d="M44.8 3.73337V5.60003H42.9334H41.0667V7.4667V9.33336H14.9334V7.4667V5.60003H13.0667H11.2V3.73337H44.8ZM46.6667 1.8667H9.33337V7.4667H13.0667V11.2H42.9334V7.4667H46.6667V1.8667Z" fill="#4E4FF2"/>
<path d="M16.8 46.6667H39.2C39.2 41.0462 28 37.3334 28 37.3334C28 37.3334 16.8 41.0462 16.8 46.6667Z" fill="#4E4FF2"/>
<path d="M10.2667 53.2001V49.4667H14.0001V45.7334H42.0001V49.4667H45.7334V53.2001H10.2667Z" fill="#8BB7F0"/>
<path d="M41.0667 46.6667V48.5334V50.4H42.9334H44.8V52.2667H11.2V50.4H13.0667H14.9334V48.5334V46.6667H41.0667ZM42.9334 44.8H13.0667V48.5334H9.33337V54.1334H46.6667V48.5334H42.9334V44.8Z" fill="#4E4FF2"/>
<path d="M18.3101 20.5333C20.2477 23.8784 23.8559 26.1333 27.9999 26.1333C32.1439 26.1333 35.7522 23.8784 37.6898 20.5333H18.3101Z" fill="#4E4FF2"/>
</svg>
