<svg width="109" height="109" viewBox="0 0 109 109" fill="none" xmlns="http://www.w3.org/2000/svg">
<path d="M90.8334 22.7083H18.1667C13.1504 22.7083 9.08334 26.7754 9.08334 31.7916V77.2083C9.08334 82.2246 13.1504 86.2916 18.1667 86.2916H90.8334C95.8496 86.2916 99.9167 82.2246 99.9167 77.2083V31.7916C99.9167 26.7754 95.8496 22.7083 90.8334 22.7083Z" fill="#CFD8DC"/>
<path d="M99.9167 31.8485C99.9167 30.7925 99.701 29.7956 99.3717 28.851L54.5 61.3693L9.63061 28.851C9.29907 29.7956 9.08334 30.7948 9.08334 31.8485V34.0625L54.5 66.9782L99.9167 34.0625V31.8485Z" fill="#78909C"/>
<path d="M109 22.7083C109 35.2501 98.8335 45.4167 86.2917 45.4167C73.7499 45.4167 63.5833 35.2501 63.5833 22.7083C63.5833 10.1665 73.7499 0 86.2917 0C98.8335 0 109 10.1665 109 22.7083Z" fill="#64DD17"/>
<path d="M82.8854 6.8125H89.6979V27.25H82.8854V6.8125ZM82.8854 31.7917H89.6979V38.6042H82.8854V31.7917Z" fill="white"/>
</svg>
