<svg width="162" height="162" viewBox="0 0 162 162" fill="none" xmlns="http://www.w3.org/2000/svg">
<path d="M81 81C23.625 81 13.5 92.8125 13.5 92.8125C13.5 101.199 49.3121 108 81 108C112.688 108 148.5 101.199 148.5 92.8125C148.5 92.8125 138.375 81 81 81Z" fill="url(#paint0_linear)"/>
<path d="M81 82.6875C129.799 82.6875 143.984 91.368 146.694 93.4605C144.575 99.2959 114.571 106.312 81 106.312C47.4356 106.312 17.4386 99.2993 15.309 93.4639C18.0664 91.3376 32.2886 82.6875 81 82.6875ZM81 81C23.625 81 13.5 92.8125 13.5 92.8125C13.5 101.199 49.3121 108 81 108C112.688 108 148.5 101.199 148.5 92.8125C148.5 92.8125 138.375 81 81 81Z" fill="#01457A"/>
<path d="M23.625 155.25H138.375C138.375 136.364 122.806 121.051 103.602 121.051H58.3976C39.1939 121.051 23.625 136.364 23.625 155.25Z" fill="url(#paint1_radial)"/>
<path d="M127.133 129.549C127.133 127.183 124.976 125.267 122.313 125.267C121.608 124.808 112.681 118.125 106.255 118.125C106.255 118.125 57.0611 118.125 54.864 118.125C48.4414 118.125 39.5111 124.808 38.8057 125.263C36.1462 125.263 33.9862 127.18 33.9862 129.546C33.9862 135.027 48.8194 149.475 76.9837 150.964C78.1312 151.051 79.3159 151.109 80.5579 151.109C81.7999 151.109 82.9845 151.051 84.132 150.964C112.3 149.475 127.133 135.03 127.133 129.549Z" fill="url(#paint2_radial)"/>
<path d="M127.133 129.549C127.133 127.183 124.976 125.267 122.313 125.267C121.608 124.808 112.681 118.125 106.255 118.125C106.255 118.125 57.0611 118.125 54.864 118.125C48.4414 118.125 39.5111 124.808 38.8057 125.263C36.1462 125.263 33.9862 127.18 33.9862 129.546C33.9862 135.027 48.8194 149.475 76.9837 150.964C78.1312 151.051 79.3159 151.109 80.5579 151.109C81.7999 151.109 82.9845 151.051 84.132 150.964C112.3 149.475 127.133 135.03 127.133 129.549Z" fill="url(#paint3_radial)"/>
<path d="M127.133 129.549C127.133 127.183 124.976 125.267 122.313 125.267C121.608 124.808 112.681 118.125 106.255 118.125C106.255 118.125 57.0611 118.125 54.864 118.125C48.4414 118.125 39.5111 124.808 38.8057 125.263C36.1462 125.263 33.9862 127.18 33.9862 129.546C33.9862 132.286 53.2575 148.108 80.5579 148.108C109.468 148.112 127.133 132.29 127.133 129.549Z" fill="url(#paint4_radial)"/>
<path d="M112.583 88.0335C114.163 87.3517 117.983 87.7871 118.115 94.0376C118.24 99.9473 117.15 102.644 115.698 105.182C114.072 108.03 111.152 108.007 111.392 105.746C111.632 103.484 112.583 88.0335 112.583 88.0335Z" fill="url(#paint5_radial)"/>
<path d="M49.7408 88.0335C48.0668 87.3517 44.0269 87.7871 43.8851 94.0376C43.7535 99.9473 44.9078 102.644 46.44 105.182C48.1613 108.03 51.2528 108.007 50.9963 105.746C50.7431 103.481 49.7408 88.0335 49.7408 88.0335Z" fill="url(#paint6_radial)"/>
<path d="M114.75 88.8434C114.75 97.0346 114.24 107.716 111.216 114.271C105.324 127.038 89.6366 135 81 135C72.0259 135 56.511 127.038 50.6149 114.271C47.5909 107.716 47.25 97.0346 47.25 88.8434C47.25 87.0446 47.2972 85.3436 47.385 83.7337C47.9014 74.4626 49.8656 68.0703 52.9133 62.1573C58.9646 50.4191 69.2854 45.1169 80.9966 45.1169C92.6471 45.1169 102.917 50.3347 108.982 61.9649C112.624 68.9444 114.75 76.6968 114.75 88.8434Z" fill="url(#paint7_radial)"/>
<path d="M104.959 113.987C101.945 116.009 100.045 114.038 99.0495 113.113C97.6556 111.82 91.7089 108.786 81 108.742C70.2911 108.786 64.341 111.82 62.9505 113.113C61.9549 114.034 60.0581 116.009 57.0409 113.987C48.5595 108.297 47.25 91.6278 47.25 91.6278C47.25 124.875 54 136.687 81 141.75C108 136.687 114.75 124.875 114.75 91.6278C114.75 91.6278 113.441 108.297 104.959 113.987Z" fill="url(#paint8_radial)"/>
<path d="M81 119.812C74.25 119.812 72.5625 116.822 72.5625 116.822C72.5625 116.822 72.7616 124.875 81 124.875C89.2384 124.875 89.4375 116.822 89.4375 116.822C89.4375 116.822 87.75 119.812 81 119.812Z" fill="url(#paint9_radial)"/>
<path d="M72.9135 115.351C72.441 115.351 72.1643 115.644 72.3971 115.881C74.1319 117.632 78.1043 118.159 81 118.159C84.1489 118.159 87.8681 117.629 89.6029 115.881C89.8358 115.644 89.559 115.351 89.0865 115.351C83.7371 115.553 78.3473 115.57 72.9135 115.351Z" fill="url(#paint10_radial)"/>
<path d="M47.9489 90.0855C47.9489 90.0855 48.8028 79.0256 48.2695 75.7957C50.6759 73.9698 58.1583 68.4956 57.0884 59.9298C60.163 62.5961 75.931 73.8281 101.19 64.9856C106.802 72.144 107.872 72.4275 112.148 75.0937C113.218 78.1818 113.62 88.3102 113.485 89.9943C113.35 91.6785 115.354 92.9441 116.293 89.4341C116.586 88.3305 117.916 78.84 118.102 72.3296C118.51 58.1647 113.522 37.4186 80.7438 37.1283C48.9243 36.8482 43.7639 58.2693 43.8787 72.6468C43.9361 79.8862 45.3299 89.7142 45.3299 89.7142C45.6944 91.8168 47.5169 91.908 47.9489 90.0855Z" fill="url(#paint11_radial)"/>
<path d="M115.206 87.1526C115.334 85.5191 114.645 75.9847 113.643 72.4646C113.565 72.1878 113.373 71.9651 113.137 71.8166C109.259 69.4102 107.558 68.8905 102.492 62.4577C102.208 62.1 101.736 61.9481 101.317 62.0932C79.7546 69.417 62.9606 61.0031 56.8822 56.889C56.1127 56.3692 55.161 57.0172 55.2251 57.9825C55.7854 66.0757 50.679 71.6411 47.2061 73.5547C46.7944 73.7808 46.5311 74.223 46.5817 74.7123C46.9834 78.5362 46.8011 87.0142 46.8011 87.0142C46.5615 88.0301 45.8494 88.4857 45.1946 88.3507C45.3026 89.1877 45.3735 89.694 45.3735 89.694C45.7414 91.8168 47.5605 91.908 47.9925 90.0686C47.9925 90.0686 48.7519 80.1258 48.3874 76.2648C48.3502 75.8666 48.5224 75.4818 48.8261 75.2456C51.3506 73.2982 56.8687 68.7555 57.2096 61.9582C57.2535 61.0503 58.1715 60.4968 58.8836 61.0031C64.2634 64.8202 78.8197 72.3701 100.48 64.9755C100.902 64.8303 101.378 64.9822 101.662 65.3433C106.697 71.7727 107.912 72.2958 111.756 74.6988C111.993 74.8473 112.185 75.0701 112.263 75.3502C113.235 78.8703 113.599 88.3473 113.471 89.9808C113.336 91.6818 115.341 92.9576 116.275 89.4138C116.313 89.2721 116.37 88.9852 116.434 88.587C115.732 89.5927 115.108 88.4317 115.206 87.1526Z" fill="#C7B299"/>
<path d="M55.0429 57.2231C55.5187 65.6606 50.6182 71.1989 47.1757 73.1801C46.764 73.4163 46.4906 73.8314 46.4704 74.2803C46.4535 74.6347 46.4467 75.0566 46.467 75.5122C46.6661 79.5082 46.5142 86.2177 46.5412 86.7982C46.3421 87.8107 45.7447 88.3304 45.198 88.3237C45.2081 88.4081 45.2182 88.4891 45.2284 88.5667C45.3195 89.2721 45.3769 89.6906 45.3769 89.6906C45.7447 91.8134 47.5639 91.9046 47.9959 90.0652C47.9959 90.0652 48.7552 80.1224 48.3907 76.2614C48.3536 75.8632 48.5257 75.4784 48.8295 75.2422C51.354 73.2948 56.8721 68.7521 57.213 61.9548C57.2569 61.0469 58.1749 60.4934 58.887 60.9997C64.2667 64.8168 78.8231 72.3667 100.484 64.9721C100.906 64.8269 101.382 64.9788 101.665 65.3399C106.701 71.7693 107.916 72.2924 111.76 74.6954C111.996 74.8439 112.188 75.0667 112.266 75.3468C113.238 78.8669 113.603 88.3439 113.474 89.9774C113.339 91.6784 115.344 92.9542 116.279 89.4104C116.316 89.2687 116.373 88.9818 116.438 88.5836C115.84 89.3699 115.32 88.2292 115.398 86.9467C115.52 84.8981 114.824 75.5864 113.856 72.1777C113.792 71.9549 113.653 71.7659 113.478 71.6242C113.43 71.5871 113.38 71.5499 113.329 71.5196C109.461 69.1064 107.548 67.9353 102.492 61.5127C102.208 61.1549 101.736 61.0031 101.318 61.1482C79.7546 68.4719 62.7716 60.2437 56.6966 56.1329C55.9305 55.6098 54.9889 56.2578 55.0429 57.2231Z" fill="#C7B299"/>
<path d="M54.8572 56.4638C55.2487 65.2422 50.5507 70.7535 47.142 72.8055C46.7302 73.0519 46.4467 73.4434 46.3556 73.8518C46.2814 74.1893 46.2341 74.6078 46.251 75.0735C46.3894 78.9075 46.224 85.4246 46.278 86.5924C46.1194 87.6015 45.6334 88.1854 45.198 88.3069C45.2081 88.3845 45.2182 88.4622 45.2284 88.533C45.3229 89.2587 45.3836 89.694 45.3836 89.694C45.7515 91.8169 47.5706 91.908 48.0026 90.0686C48.0026 90.0686 48.762 80.1259 48.3975 76.2649C48.3604 75.8667 48.5325 75.4819 48.8362 75.2457C51.3607 73.2983 56.8789 68.7555 57.2197 61.9583C57.2636 61.0504 58.1816 60.4969 58.8937 61.0032C64.2735 64.8203 78.8299 72.3702 100.491 64.9755C100.912 64.8304 101.388 64.9823 101.672 65.3434C106.707 71.7728 107.922 72.2959 111.766 74.6989C112.003 74.8474 112.195 75.0702 112.273 75.3503C113.245 78.8704 113.609 88.3474 113.481 89.9809C113.346 91.6819 115.351 92.9576 116.286 89.4139C116.323 89.2721 116.38 88.9853 116.444 88.587C115.965 89.1506 115.543 88.0301 115.6 86.7443C115.708 84.2771 115.013 75.1917 114.075 71.8943C114.007 71.6614 113.862 71.4657 113.677 71.3239C113.629 71.2868 113.579 71.253 113.528 71.2193C109.671 68.8028 107.548 66.9769 102.499 60.5644C102.215 60.2067 101.743 60.0548 101.324 60.1999C79.7614 67.5237 62.5927 59.4844 56.5144 55.3703C55.7449 54.8505 54.81 55.4985 54.8572 56.4638Z" fill="#C7B299"/>
<path d="M54.6716 55.7078C54.999 64.827 50.4866 70.3114 47.1049 72.4376C46.6965 72.6975 46.3927 73.0654 46.2375 73.4265C46.0991 73.7471 46.0181 74.1656 46.0282 74.6348C46.1092 78.3068 45.927 84.6349 46.0114 86.3831C45.8966 87.3889 45.5186 88.0369 45.1946 88.2866C45.2047 88.3609 45.2149 88.4318 45.225 88.4993C45.3229 89.2485 45.3836 89.6974 45.3836 89.6974C45.7515 91.8203 47.5706 91.9114 48.0026 90.072C48.0026 90.072 48.762 80.1293 48.3975 76.2683C48.3604 75.87 48.5325 75.4853 48.8362 75.249C51.3607 73.3016 56.8789 68.7589 57.2197 61.9616C57.2636 61.0538 58.1816 60.5003 58.8937 61.0065C64.2735 64.8236 78.8299 72.3735 100.491 64.9789C100.912 64.8338 101.388 64.9856 101.672 65.3468C106.707 71.7761 107.922 72.2993 111.766 74.7023C112.003 74.8508 112.195 75.0735 112.273 75.3536C113.245 78.8738 113.609 88.3508 113.481 89.9843C113.346 91.6853 115.351 92.961 116.286 89.4173C116.323 89.2755 116.38 88.9886 116.444 88.5904C116.08 88.9313 115.756 87.831 115.796 86.5451C115.887 83.6595 115.195 74.8035 114.288 71.6141C114.22 71.3711 114.061 71.172 113.869 71.0303C113.822 70.9931 113.771 70.9594 113.721 70.929C109.87 68.5058 107.538 66.0251 102.499 59.6295C102.215 59.2718 101.743 59.1199 101.324 59.265C79.7614 66.5888 62.4071 58.7351 56.3287 54.621C55.5559 54.0911 54.6345 54.7391 54.6716 55.7078Z" fill="#C7B299"/>
<path d="M54.4826 54.9484C54.7256 64.4119 50.4157 69.8659 47.0677 72.063C46.6594 72.333 46.3354 72.6772 46.1194 72.9979C45.9169 73.2982 45.8021 73.7167 45.8055 74.1926C45.8325 77.7026 45.6334 83.8417 45.7414 86.1739C45.6671 87.1762 45.4039 87.8884 45.1879 88.263C45.198 88.3305 45.2081 88.398 45.2149 88.4621C45.3127 89.2316 45.3769 89.6974 45.3769 89.6974C45.7447 91.8202 47.5639 91.9114 47.9959 90.072C47.9959 90.072 48.7552 80.1292 48.3907 76.2682C48.3536 75.87 48.5257 75.4852 48.8295 75.249C51.354 73.3016 56.8721 68.7589 57.213 61.9616C57.2569 61.0537 58.1749 60.5002 58.887 61.0065C64.2667 64.8236 78.8231 72.3735 100.484 64.9789C100.906 64.8337 101.382 64.9856 101.665 65.3467C106.701 71.7761 107.916 72.2992 111.76 74.7022C111.996 74.8507 112.188 75.0735 112.266 75.3536C113.238 78.8737 113.603 88.3507 113.474 89.9842C113.339 91.6852 115.344 92.961 116.279 89.4172C116.316 89.2755 116.373 88.9886 116.438 88.5904C116.188 88.7085 115.958 87.6285 115.985 86.3392C116.053 83.0385 115.371 74.4052 114.497 71.3272C114.426 71.0775 114.261 70.8716 114.055 70.7265C114.007 70.6927 113.957 70.659 113.906 70.6286C110.065 68.202 107.521 65.0666 102.492 58.6811C102.208 58.3234 101.736 58.1715 101.318 58.3166C79.7546 65.6404 62.2114 57.9724 56.133 53.8616C55.3702 53.3317 54.459 53.9797 54.4826 54.9484Z" fill="#C7B299"/>
<path d="M54.297 54.1889C54.4354 63.9933 50.3516 69.4237 47.034 71.6883C46.6256 71.9684 46.278 72.2857 46.0046 72.5658C45.7313 72.8459 45.5895 73.2678 45.5861 73.747C45.5591 77.0917 45.3398 83.0418 45.4781 85.9578C45.4444 86.9568 45.2925 87.733 45.1845 88.2359C45.1946 88.3 45.2014 88.3608 45.2115 88.4215C45.3128 89.2147 45.3803 89.6939 45.3803 89.6939C45.7481 91.8168 47.5673 91.9079 47.9993 90.0685C47.9993 90.0685 48.7586 80.1258 48.3941 76.2648C48.357 75.8665 48.5291 75.4818 48.8329 75.2455C51.3574 73.2982 56.8755 68.7554 57.2164 61.9582C57.2603 61.0503 58.1783 60.4968 58.8904 61.003C64.2701 64.8202 78.8265 72.37 100.487 64.9754C100.909 64.8303 101.385 64.9822 101.669 65.3433C106.704 71.7727 107.919 72.2958 111.763 74.6988C111.999 74.8473 112.192 75.07 112.269 75.3502C113.241 78.8703 113.606 88.3473 113.478 89.9808C113.343 91.6818 115.347 92.9575 116.282 89.4138C116.319 89.272 116.377 88.9852 116.441 88.5869C116.309 88.4857 116.168 87.4225 116.184 86.1299C116.225 82.4107 115.557 74.0035 114.713 71.0369C114.639 70.777 114.467 70.5678 114.251 70.4227C114.203 70.3889 114.153 70.3585 114.102 70.3248C110.271 67.8914 107.514 64.1047 102.492 57.7293C102.209 57.3715 101.736 57.2197 101.318 57.3648C79.7546 64.6885 62.0258 57.2062 55.9474 53.0954C55.1813 52.5723 54.2801 53.2203 54.297 54.1889Z" fill="#C7B299"/>
<path d="M54.108 53.4295C54.162 63.5781 50.2841 68.9781 46.9969 71.3136C46.5885 71.6039 46.2139 71.8908 45.8865 72.1371C45.5456 72.3936 45.3769 72.8189 45.3667 73.3049C45.2891 76.4875 45.0461 82.2486 45.2149 85.7451C45.2216 86.7408 45.1845 87.5811 45.1845 88.2123C45.1912 88.2696 45.2014 88.3304 45.2115 88.3844C45.3161 89.1978 45.3836 89.6905 45.3836 89.6905C45.7515 91.8134 47.5706 91.9045 48.0026 90.0651C48.0026 90.0651 48.762 80.1224 48.3975 76.2614C48.3604 75.8631 48.5325 75.4784 48.8362 75.2421C51.3607 73.2948 56.8789 68.752 57.2197 61.9548C57.2636 61.0469 58.1816 60.4934 58.8937 60.9996C64.2735 64.8168 78.8299 72.3666 100.491 64.972C100.912 64.8269 101.388 64.9788 101.672 65.3399C106.707 71.7693 107.922 72.2924 111.767 74.6954C112.003 74.8439 112.195 75.0666 112.273 75.3468C113.245 78.8669 113.609 88.3439 113.481 89.9774C113.346 91.6784 115.351 92.9541 116.286 89.4104C116.323 89.2686 116.38 88.9818 116.444 88.5835C116.427 88.2595 116.38 87.2166 116.383 85.924C116.394 81.7863 115.742 73.6053 114.929 70.7534C114.851 70.4868 114.669 70.2674 114.446 70.1223C114.396 70.0919 114.348 70.0581 114.298 70.0278C110.477 67.5876 107.507 63.1495 102.495 56.7843C102.212 56.4265 101.739 56.2746 101.321 56.4198C79.758 63.7435 61.8401 56.4501 55.7617 52.336C54.9956 51.8129 54.1012 52.4609 54.108 53.4295Z" fill="#C7B299"/>
<path d="M115.142 70.4666C115.064 70.1899 114.872 69.9671 114.635 69.8186C110.757 67.4123 107.561 62.2688 102.495 55.836C102.212 55.4782 101.739 55.3264 101.321 55.4715C79.758 62.7953 61.6545 55.6875 55.5761 51.5734C54.8066 51.0536 53.9224 51.6982 53.919 52.6669C53.8853 64.4659 49.2379 69.7916 45.765 71.7053C45.3533 71.9314 45.1609 72.3701 45.1406 72.8629C44.9854 76.6699 44.5973 84.5302 45.198 88.3507C45.306 89.1877 45.3769 89.694 45.3769 89.694C45.7448 91.8169 47.5639 91.908 47.9959 90.0686C47.9959 90.0686 48.7553 80.1259 48.3908 76.2649C48.3536 75.8666 48.5258 75.4819 48.8295 75.2456C51.354 73.2983 56.8721 68.7555 57.213 61.9582C57.2569 61.0504 58.1749 60.4969 58.887 61.0031C64.2668 64.8203 78.8231 72.3701 100.484 64.9755C100.906 64.8304 101.382 64.9822 101.665 65.3434C106.701 71.7728 107.916 72.2959 111.76 74.6989C111.996 74.8474 112.188 75.0701 112.266 75.3503C113.238 78.8704 113.603 88.3474 113.474 89.9809C113.339 91.6819 115.344 92.9576 116.279 89.4139C116.316 89.2721 116.373 88.9852 116.438 88.587C116.897 86.1165 116.144 73.9901 115.142 70.4666Z" fill="#C7B299"/>
<path d="M111.017 74.493C107.187 72.0967 106.38 71.7424 101.402 65.3872C101.081 64.9789 100.636 65.124 100.16 65.286C78.8332 72.5287 65.0329 65.6606 59.6565 61.9785C58.887 61.452 57.8272 61.9684 57.7631 62.937C57.3412 69.3765 51.9952 72.9877 49.4404 74.8204C49.0556 75.0937 48.8767 75.5629 48.9172 76.0489C49.2109 79.4542 48.3131 89.397 47.9958 89.5657C48.5628 89.424 50.7431 80.5241 51.1177 77.3516C51.165 76.9635 51.3337 76.6192 51.6442 76.4066C54.0067 74.7697 58.0398 72.2992 59.5485 67.9522C59.8016 67.2266 60.5913 66.906 61.236 67.2637C66.1061 69.9637 79.866 75.6945 98.8706 69.6836C99.3364 69.5351 99.8527 69.7039 100.167 70.0954C104.173 75.0634 106.522 75.5325 109.637 76.9939C109.91 77.1221 110.15 77.3584 110.278 77.6452C111.905 81.3307 111.091 90.3656 113.599 91.2499C112.509 89.4274 113.106 78.8636 111.544 75.1005C111.442 74.8474 111.243 74.6347 111.017 74.493Z" fill="#F6BF25"/>
<path d="M57.6652 62.7784C57.2636 69.2584 51.9142 73.0047 49.3492 74.8643C49.2885 74.9082 49.2345 74.9554 49.1838 75.006C48.9105 75.2794 48.7856 75.6709 48.8193 76.0793C49.0691 78.8974 48.5156 86.265 48.1882 88.6309C48.0836 89.3194 47.9655 89.748 47.8608 89.802C48.0768 89.748 48.3941 89.0933 48.7113 88.1112C49.518 85.4517 50.6047 79.6602 50.8646 77.2369C50.9051 76.8589 51.0738 76.5248 51.3742 76.3155C53.7097 74.6753 57.753 72.0732 59.2751 67.5743C59.5215 66.852 60.2133 66.4943 60.7938 66.663C60.9626 66.7103 61.1887 66.771 61.4182 66.8925C66.5921 69.687 80.3047 75.2457 99.0393 69.2078C99.414 69.0863 99.8223 69.1774 100.123 69.4238C100.204 69.4879 100.278 69.5622 100.342 69.6465C104.341 74.6247 106.461 75.1647 109.529 76.6497C109.644 76.707 109.762 76.7644 109.873 76.8285C109.968 76.8825 110.055 76.95 110.136 77.0277C110.275 77.1593 110.393 77.3247 110.467 77.5069C111.581 80.2238 111.507 85.8735 112.175 88.8503C112.465 90.1429 112.992 91.179 113.761 91.3005C113.464 90.99 113.255 90.2273 113.157 89.2384C112.823 85.7554 112.85 78.1414 111.648 75.1309C111.547 74.8744 111.348 74.6584 111.122 74.52C107.284 72.1238 106.424 71.7424 101.429 65.3738C101.115 64.9755 100.666 65.0768 100.2 65.2354C78.7995 72.5085 64.8776 65.5257 59.508 61.8267C58.7587 61.3103 57.7226 61.8233 57.6652 62.7784Z" fill="#EAB933"/>
<path d="M57.5673 62.6197C57.1893 69.1436 51.8298 73.0215 49.2581 74.9081C49.1973 74.952 49.1433 74.9992 49.0893 75.0465C48.8092 75.3131 48.681 75.7012 48.7181 76.1096C48.9847 79.029 48.3975 86.8961 48.1241 88.8705C48.0127 89.5455 47.8642 89.964 47.7225 90.0416C48.0026 89.9707 48.3738 89.3295 48.6911 88.3777C49.4336 85.833 50.3617 79.65 50.6115 77.1255C50.6486 76.7576 50.8106 76.4302 51.1008 76.2243C53.4127 74.5773 57.4594 71.847 58.9984 67.1962C59.238 66.474 59.8691 66.1938 60.3483 66.0588C60.4969 66.0183 60.7432 66.0555 60.9828 66.1871C65.988 68.9681 79.9976 75.0296 99.2047 68.7318C99.5861 68.607 100.001 68.7048 100.302 68.9715C100.379 69.039 100.453 69.1166 100.518 69.201C104.659 74.3782 106.576 74.8507 109.768 76.4707C109.887 76.5315 110.001 76.5956 110.109 76.6698C110.2 76.7306 110.285 76.8082 110.356 76.8926C110.477 77.031 110.585 77.193 110.656 77.3752C111.726 80.2001 111.655 86.2008 112.242 88.9751C112.512 90.2508 113.12 91.3747 113.926 91.3612C113.562 91.1182 113.292 90.3521 113.218 89.3666C112.981 86.1907 112.921 78.2088 111.76 75.1713C111.662 74.9148 111.466 74.6988 111.24 74.5571C107.399 72.1575 106.478 71.7558 101.473 65.3703C101.166 64.9788 100.713 65.043 100.258 65.1982C78.7826 72.4983 64.7392 65.4041 59.3763 61.6882C58.6305 61.1685 57.6213 61.6815 57.5673 62.6197Z" fill="#DEB240"/>
<path d="M57.4695 62.4612C57.1117 69.0289 51.7489 73.0418 49.1704 74.952C49.1096 74.9959 49.0556 75.0432 49.0016 75.0904C48.7181 75.3503 48.5831 75.7384 48.6236 76.1434C48.9071 79.164 48.2861 87.534 48.0667 89.1102C47.9486 89.7717 47.7697 90.18 47.5875 90.2779C47.9317 90.1902 48.3536 89.5624 48.6709 88.641C49.3526 86.2144 50.1255 79.6332 50.3584 77.0108C50.3921 76.653 50.5507 76.3358 50.8309 76.1333C53.1157 74.4795 57.1725 71.6243 58.725 66.8183C58.9612 66.096 59.508 65.6505 59.9062 65.4582C60.048 65.3873 60.3011 65.3468 60.5509 65.4885C65.3906 68.2527 79.6939 74.8204 99.3735 68.2594C99.7582 68.1312 100.187 68.2392 100.484 68.5227C100.558 68.5935 100.632 68.6712 100.696 68.7555C104.983 74.1319 106.697 74.5268 110.011 76.2919C110.13 76.356 110.244 76.4269 110.349 76.5113C110.437 76.5788 110.514 76.6632 110.582 76.7543C110.686 76.896 110.784 77.058 110.849 77.2437C111.875 80.1765 111.8 86.5283 112.31 89.0967C112.56 90.3555 113.248 91.5672 114.095 91.4187C113.663 91.2432 113.329 90.4703 113.278 89.4949C113.13 86.6262 112.995 78.2798 111.868 75.2085C111.773 74.9487 111.577 74.7327 111.351 74.5909C107.504 72.1879 106.525 71.7627 101.506 65.367C101.206 64.9857 100.754 65.0059 100.305 65.1578C78.7556 72.4883 64.5907 65.2793 59.2346 61.5465C58.5022 61.0268 57.5201 61.5364 57.4695 62.4612Z" fill="#D2AC4E"/>
<path d="M57.3716 62.3059C57.0341 68.9175 51.6645 73.062 49.0792 75.0026C49.0218 75.0465 48.9645 75.0938 48.9105 75.1376C48.6202 75.3908 48.4852 75.7755 48.5223 76.1771C48.8227 79.299 48.168 88.1685 48.006 89.3531C47.8811 90.0011 47.6752 90.4028 47.4491 90.5209C47.8608 90.4163 48.33 89.802 48.6472 88.9076C49.2648 86.5958 49.8858 79.623 50.1052 76.896C50.1322 76.5484 50.2875 76.2379 50.5608 76.0421C52.8221 74.3816 56.8822 71.3981 58.4516 66.4403C58.6811 65.7214 59.1536 65.1915 59.4607 64.854C59.589 64.7123 59.8556 64.6313 60.1155 64.7831C64.7899 67.5236 79.3867 74.6044 99.5389 67.7801C99.9304 67.6485 100.369 67.7666 100.659 68.0636C100.734 68.1379 100.804 68.2189 100.869 68.3033C105.297 73.8754 106.812 74.196 110.248 76.1063C110.366 76.1738 110.481 76.2514 110.582 76.3425C110.666 76.4201 110.74 76.5113 110.801 76.6091C110.892 76.7543 110.977 76.9196 111.037 77.1019C112.016 80.1461 111.942 86.8455 112.377 89.208C112.603 90.45 113.376 91.7494 114.261 91.4659C113.758 91.3579 113.363 90.5816 113.339 89.6096C113.272 87.0514 113.066 78.3338 111.979 75.2355C111.888 74.9756 111.696 74.7563 111.466 74.6145C107.612 72.2081 106.576 71.7626 101.544 65.3502C101.25 64.9755 100.794 64.9553 100.359 65.1038C78.7354 72.4613 64.4523 65.1409 59.0996 61.3913C58.3773 60.8884 57.4188 61.3947 57.3716 62.3059Z" fill="#C7A55B"/>
<path d="M57.2737 62.1473C56.9598 68.8028 51.5801 73.0823 48.9881 75.0465C48.9307 75.0904 48.8733 75.1343 48.8193 75.1815C48.5257 75.4279 48.384 75.8093 48.4245 76.2109C48.7417 79.434 48.0532 88.803 47.9452 89.5928C47.8136 90.2273 47.5773 90.6188 47.3141 90.7605C47.79 90.6424 48.3131 90.0383 48.627 89.1743C49.1838 86.9805 49.6496 79.6129 49.8521 76.7846C49.8757 76.4471 50.0242 76.1468 50.2875 75.951C52.5251 74.2838 56.592 71.172 58.1748 66.0623C58.401 65.3434 58.779 64.7291 59.0152 64.2533C59.1198 64.0373 59.4135 63.9191 59.6801 64.0811C64.1958 66.798 79.0762 74.3918 99.7042 67.3043C100.102 67.1659 100.551 67.2941 100.838 67.6114C100.909 67.689 100.98 67.77 101.044 67.8544C105.617 73.6256 106.933 73.8686 110.487 75.924C110.605 75.9915 110.72 76.0793 110.815 76.1805C110.896 76.2649 110.963 76.3661 111.017 76.4708C111.095 76.6193 111.166 76.7846 111.22 76.9669C112.148 80.1191 112.074 87.1695 112.435 89.3295C112.641 90.5546 113.494 91.9418 114.416 91.5233C113.845 91.4828 113.386 90.7031 113.386 89.7345C113.393 87.4868 113.127 78.4013 112.077 75.2693C111.989 75.006 111.797 74.7866 111.571 74.6449C107.713 72.2385 106.616 71.766 101.571 65.34C101.284 64.9755 100.825 64.9114 100.399 65.0565C78.7016 72.441 64.2971 65.0093 58.9511 61.2428C58.2491 60.7466 57.3176 61.2495 57.2737 62.1473Z" fill="#BB9F69"/>
<path d="M57.1758 61.9887C56.8822 68.6881 51.4991 73.0992 48.897 75.0904C48.8396 75.1343 48.7822 75.1782 48.7282 75.2221C48.4278 75.4617 48.2861 75.8397 48.3266 76.2379C48.6607 79.5623 47.9418 89.4342 47.8845 89.8257C47.7495 90.4467 47.4795 90.8281 47.1757 90.9901C47.7157 90.8551 48.2895 90.2644 48.6067 89.4308C49.1028 87.3552 49.4235 79.5927 49.599 76.6632C49.6192 76.3358 49.7643 76.0422 50.0175 75.8532C52.2281 74.1826 56.3017 70.9392 57.9015 65.6776C58.1208 64.9587 58.3976 64.2736 58.5731 63.6424C58.6541 63.3589 58.9713 63.1969 59.2481 63.3691C63.6052 66.0556 78.7725 74.1724 99.873 66.8183C100.278 66.6766 100.737 66.8149 101.017 67.1491C101.088 67.2301 101.155 67.3144 101.22 67.3988C105.934 73.3658 107.058 73.5244 110.727 75.7351C110.848 75.8059 110.956 75.9004 111.051 76.0084C111.129 76.1029 111.193 76.2076 111.24 76.3189C111.304 76.4708 111.361 76.6396 111.412 76.8218C112.286 80.0854 112.212 87.4834 112.502 89.4376C112.681 90.6492 113.623 92.1207 114.581 91.5672C113.94 91.5942 113.41 90.8112 113.447 89.8493C113.518 87.9121 113.201 78.4553 112.188 75.2929C112.104 75.0263 111.915 74.8103 111.685 74.6686C107.821 72.2588 106.667 71.7661 101.608 65.3266C101.328 64.9688 100.869 64.8676 100.45 65.0093C78.678 72.4242 64.152 64.8777 58.8127 61.0943C58.1208 60.6049 57.213 61.1078 57.1758 61.9887Z" fill="#AF9876"/>
<path d="M113.508 89.9775C113.636 88.3474 113.272 78.5227 112.296 75.3334C112.215 75.0667 112.026 74.8474 111.8 74.7056C107.932 72.2925 106.717 71.7761 101.648 65.3231C101.375 64.9755 100.912 64.8304 100.504 64.9687C78.6577 72.4106 64.0136 64.7494 58.6777 60.9525C57.996 60.4665 57.1117 60.966 57.078 61.8334C56.7979 68.7251 51.1751 73.3185 48.6371 75.2692C48.3334 75.5021 48.1849 75.8801 48.2254 76.275C48.5797 79.7006 47.8237 90.072 47.8237 90.072C47.682 90.6761 47.3816 91.0507 47.0374 91.2364C47.6415 91.0845 48.2659 90.5074 48.5831 89.7041C49.0151 87.7432 49.1839 79.5859 49.3425 76.5585C49.3594 76.2412 49.4977 75.9577 49.7407 75.7721C52.218 73.872 57.1219 69.7984 58.1242 63.0517C58.1749 62.7007 58.5225 62.4982 58.8127 62.6805C63.0112 65.3332 78.4654 73.9732 100.038 66.3592C100.45 66.2141 100.919 66.3592 101.196 66.7136C106.231 73.1329 107.126 73.1835 110.967 75.5696C111.193 75.708 111.378 75.9375 111.463 76.1974C112.428 79.2281 112.337 87.7297 112.57 89.5725C112.722 90.7672 113.751 92.3265 114.75 91.638C114.041 91.7224 113.434 90.936 113.508 89.9775Z" fill="#A39284"/>
<path d="M80.8211 106.076C78.6071 106.076 76.8083 105.516 75.6979 104.905C74.8811 104.456 74.0509 104.662 74.5943 106.069C75.3266 107.976 77.004 110.224 80.8211 110.224C84.5741 110.224 86.2583 108.054 87.0109 106.167C87.588 104.719 86.7544 104.571 86.0456 104.905C84.672 105.546 82.9778 106.076 80.8211 106.076Z" fill="url(#paint12_radial)"/>
<path d="M88.7794 103.849C88.7288 105.975 85.1681 107.609 80.8313 107.504C76.4944 107.396 73.0181 105.59 73.0688 103.467C73.1194 101.341 76.68 99.7076 81.0169 99.8123C85.3538 99.9169 88.83 101.726 88.7794 103.849Z" fill="url(#paint13_radial)"/>
<path d="M81.0371 106.137C83.2254 106.137 84.9994 104.966 84.9994 103.521C84.9994 102.077 83.2254 100.906 81.0371 100.906C78.8488 100.906 77.0749 102.077 77.0749 103.521C77.0749 104.966 78.8488 106.137 81.0371 106.137Z" fill="url(#paint14_radial)"/>
<path d="M54.1999 93.8655C54.1358 94.8105 54.3518 94.7295 54.7501 95.202C54.7501 95.202 59.2186 100.875 72.6949 96.9907C73.6703 96.6701 74.3723 96.0626 74.2711 95.3336C72.5397 82.7651 55.2563 84.6112 54.1999 93.8655Z" fill="#805B2A"/>
<path d="M54.3983 94.3413C54.0608 95.0062 54.1688 95.5361 54.3983 96.0693C55.3568 98.3981 63.072 106.701 73.4805 97.9863C74.2568 97.3721 74.3783 96.8287 74.1859 96.0592C73.9935 95.2931 71.2969 89.0122 64.2296 89.0122C57.2366 89.0156 54.9821 93.4402 54.3983 94.3413Z" fill="white"/>
<path d="M64.1284 100.217C67.2263 100.217 69.7377 97.7059 69.7377 94.608C69.7377 91.5101 67.2263 88.9988 64.1284 88.9988C61.0305 88.9988 58.5192 91.5101 58.5192 94.608C58.5192 97.7059 61.0305 100.217 64.1284 100.217Z" fill="url(#paint15_linear)"/>
<path d="M64.1284 97.4328C65.6885 97.4328 66.9533 96.1681 66.9533 94.608C66.9533 93.0478 65.6885 91.7831 64.1284 91.7831C62.5683 91.7831 61.3035 93.0478 61.3035 94.608C61.3035 96.1681 62.5683 97.4328 64.1284 97.4328Z" fill="url(#paint16_radial)"/>
<path d="M61.1348 92.9543C61.899 92.9543 62.5185 92.3347 62.5185 91.5705C62.5185 90.8063 61.899 90.1868 61.1348 90.1868C60.3705 90.1868 59.751 90.8063 59.751 91.5705C59.751 92.3347 60.3705 92.9543 61.1348 92.9543Z" fill="white"/>
<path d="M107.872 93.8655C107.936 94.8105 107.72 94.7295 107.322 95.202C107.322 95.202 102.853 100.875 89.3768 96.9907C88.4014 96.6701 87.6994 96.0626 87.8006 95.3336C89.532 82.7651 106.815 84.6112 107.872 93.8655Z" fill="#805B2A"/>
<path d="M107.673 94.3413C108.01 95.0062 107.902 95.5361 107.673 96.0693C106.714 98.3981 98.9989 106.701 88.5904 97.9863C87.8141 97.3721 87.6926 96.8287 87.885 96.0592C88.0774 95.2931 90.774 89.0122 97.8413 89.0122C104.834 89.0156 107.089 93.4402 107.673 94.3413Z" fill="white"/>
<path d="M97.9459 100.217C101.044 100.217 103.555 97.7059 103.555 94.608C103.555 91.5101 101.044 88.9988 97.9459 88.9988C94.848 88.9988 92.3366 91.5101 92.3366 94.608C92.3366 97.7059 94.848 100.217 97.9459 100.217Z" fill="url(#paint17_linear)"/>
<path d="M97.9459 97.4328C99.506 97.4328 100.771 96.1681 100.771 94.608C100.771 93.0478 99.506 91.7831 97.9459 91.7831C96.3858 91.7831 95.121 93.0478 95.121 94.608C95.121 96.1681 96.3858 97.4328 97.9459 97.4328Z" fill="url(#paint18_radial)"/>
<path d="M94.8848 92.9543C95.649 92.9543 96.2685 92.3347 96.2685 91.5705C96.2685 90.8063 95.649 90.1868 94.8848 90.1868C94.1206 90.1868 93.501 90.8063 93.501 91.5705C93.501 92.3347 94.1206 92.9543 94.8848 92.9543Z" fill="white"/>
<path d="M103.282 84.7968C99.441 83.8012 95.3741 84.0746 91.8506 85.4144C90.801 85.8127 89.6265 85.2862 89.2283 84.2365C88.83 83.1869 89.3565 82.0124 90.4061 81.6142C90.5108 81.5737 90.6154 81.5433 90.72 81.5231L90.7639 81.5163C95.2763 80.6219 99.927 81.1349 103.957 82.927C104.46 83.1498 104.689 83.7404 104.463 84.2467C104.261 84.6989 103.764 84.9284 103.299 84.8069L103.282 84.7968Z" fill="#F9F9F9"/>
<path d="M57.429 82.9237C61.4588 81.1349 66.1095 80.6185 70.6219 81.5129L70.6556 81.5196C71.7559 81.739 72.4714 82.8089 72.2554 83.9092C72.036 85.0094 70.9661 85.7249 69.8659 85.5089C69.7579 85.4887 69.6397 85.4515 69.5385 85.4144C66.015 84.0745 61.9448 83.8045 58.1074 84.7968L58.0905 84.8002C57.5573 84.9385 57.0105 84.6179 56.8721 84.0847C56.7439 83.6054 56.9903 83.116 57.429 82.9237Z" fill="#F9F9F9"/>
<g opacity="0.7">
<path opacity="0.111" d="M117.683 78.6747C107.325 77.3179 95.1041 76.5923 81 76.5923C66.8284 76.5923 54.5602 77.3348 44.1551 78.7118C44.5061 83.4233 45.0799 87.8783 45.2689 89.2654C55.2589 87.912 67.1557 87.183 81.0034 87.183C94.6687 87.183 106.441 87.8884 116.346 89.1979C116.596 87.9795 117.244 83.4267 117.683 78.6747Z" fill="#1F212B"/>
<path opacity="0.222" d="M117.622 79.326C107.409 77.9895 95.2425 77.2504 81 77.2504C66.6799 77.2504 54.4657 78.0064 44.2057 79.3699C44.5196 83.3287 44.9719 87.0041 45.1946 88.7119C55.0834 87.3754 66.9667 86.6261 81.0034 86.6261C94.8611 86.6261 106.633 87.3484 116.451 88.6511C116.731 87.0007 117.237 83.2747 117.622 79.326Z" fill="#1F212B"/>
<path opacity="0.333" d="M117.558 79.9774C107.487 78.6612 95.3775 77.9052 81 77.9052C66.5314 77.9052 54.3713 78.678 44.2564 80.0213C44.5331 83.3423 44.8943 86.3933 45.1204 88.1516C54.9079 86.8286 66.7778 86.0625 81 86.0625C95.0434 86.0625 106.812 86.8017 116.539 88.0909C116.812 86.3663 117.221 83.295 117.558 79.9774Z" fill="#1F212B"/>
<path opacity="0.444" d="M117.49 80.6288C107.565 79.3294 95.5091 78.5599 81 78.5599C66.3862 78.5599 54.2835 79.3463 44.3138 80.6727C44.5534 83.4199 44.8402 85.9174 45.0495 87.5914C54.7357 86.2819 66.5921 85.4989 81 85.4989C95.229 85.4989 106.994 86.2583 116.623 87.5341C116.873 85.8803 117.204 83.3693 117.49 80.6288Z" fill="#1F212B"/>
<path opacity="0.556" d="M117.42 81.2801C107.636 79.9976 95.6374 79.218 81 79.218C66.2445 79.218 54.1958 80.0179 44.3711 81.3274C44.5736 83.5279 44.7997 85.5326 44.982 87.0345C54.5636 85.7385 66.4099 84.9386 81 84.9386C95.4113 84.9386 107.17 85.7149 116.708 86.9771C116.924 85.4854 117.183 83.4773 117.42 81.2801Z" fill="#1F212B"/>
<path opacity="0.667" d="M117.349 81.9315C107.706 80.6693 95.7623 79.8728 81 79.8728C66.1028 79.8728 54.1114 80.6862 44.4319 81.9754C44.5939 83.6595 44.7626 85.2087 44.9145 86.4709C54.3949 85.1918 66.2276 84.375 81 84.375C95.5901 84.375 107.345 85.1682 116.785 86.4203C116.961 85.1614 117.16 83.6123 117.349 81.9315Z" fill="#1F212B"/>
<path opacity="0.778" d="M117.274 82.5829C107.77 81.3375 95.8871 80.5309 81 80.5309C65.9677 80.5309 54.0304 81.3578 44.4926 82.6301C44.6107 83.8283 44.7322 84.9353 44.847 85.914C54.2295 84.645 66.0487 83.8114 81 83.8114C95.769 83.8114 107.517 84.6214 116.863 85.86C116.994 84.888 117.136 83.7776 117.274 82.5829Z" fill="#1F212B"/>
<path opacity="0.889" d="M117.197 83.2309C107.831 82.0024 96.0019 81.1857 81 81.1857C65.8327 81.1857 53.9561 82.026 44.5601 83.2782C44.6344 84.0105 44.7086 84.7058 44.7829 85.3504C54.0641 84.0983 65.8699 83.2478 81 83.2478C95.9479 83.2478 107.686 84.0747 116.937 85.2998C117.025 84.6619 117.109 83.9633 117.197 83.2309Z" fill="#1F212B"/>
<path opacity="0.7" d="M117.119 83.8823C107.892 82.674 96.12 81.8438 81 81.8438C65.7045 81.8438 53.8785 82.6976 44.6276 83.9329C44.658 84.2299 44.6884 84.5134 44.7221 84.7935C53.9021 83.5549 65.6944 82.6875 81 82.6875C96.1234 82.6875 107.855 83.5312 117.011 84.7429C117.045 84.4627 117.082 84.1793 117.119 83.8823Z" fill="#1F212B"/>
</g>
<path d="M47.25 54L60.7432 20.25L52.1708 25.5791C52.1708 25.5791 60.75 0 79.3125 0C91.125 0 96.1875 11.8125 96.1875 11.8125L114.75 54H47.25Z" fill="white"/>
<path d="M114.75 54L96.1875 11.8125C96.1875 11.8125 91.125 0 79.3125 0C60.75 0 52.1708 25.5791 52.1708 25.5791L60.7432 20.25L47.25 54H114.75Z" fill="url(#paint19_linear)"/>
<path d="M114.75 54H47.25L60.7432 20.25L52.1708 25.5791C52.1708 25.5791 60.75 0 79.3125 0C91.125 0 96.1875 11.8125 96.1875 11.8125L114.716 53.9662C114.75 54 114.75 54 114.75 54Z" fill="url(#paint20_linear)"/>
<path d="M13.5 92.8125C13.5 86.0625 47.25 54 47.25 54C47.25 54 57.375 47.2466 81 47.2466C104.625 47.2466 114.75 54 114.75 54C114.75 54 148.5 86.0625 148.5 92.8125C148.5 92.8125 138.375 81 81 81C23.625 81 13.5 92.8125 13.5 92.8125Z" fill="white"/>
<path d="M13.5 92.8125C13.5 86.0625 47.25 54 47.25 54C47.25 54 57.375 47.2466 81 47.2466C104.625 47.2466 114.75 54 114.75 54C114.75 54 148.5 86.0625 148.5 92.8125C148.5 92.8125 138.375 81 81 81C23.625 81 13.5 92.8125 13.5 92.8125Z" fill="url(#paint21_linear)"/>
<path d="M13.5 92.8125C13.5 86.0625 47.25 54 47.25 54C47.25 54 57.375 47.2466 81 47.2466C104.625 47.2466 114.75 54 114.75 54C114.75 54 148.5 86.0625 148.5 92.8125C148.5 92.8125 138.375 81 81 81C23.625 81 13.5 92.8125 13.5 92.8125Z" fill="url(#paint22_linear)"/>
<path d="M114.75 54C114.747 53.9966 104.622 47.2466 81 47.2466C57.3784 47.2466 47.2534 53.9966 47.25 54C47.25 54 13.5 86.0625 13.5 92.8125C13.5 92.8125 23.625 81 81 81C138.375 81 148.5 92.8125 148.5 92.8125C148.5 86.0625 114.75 54 114.75 54Z" fill="url(#paint23_radial)"/>
<g opacity="0.2">
<path opacity="0.01" d="M50.8646 44.9584C50.8646 44.9584 56.6359 36.7403 66.6562 35.3194C75.654 34.0403 84.078 28.188 75.5797 26.9764C66.1837 25.6399 56.8249 30.0443 55.755 32.7375L50.8646 44.9584Z" fill="black"/>
<path opacity="0.011" d="M50.8646 44.9585C50.8646 44.9585 56.7405 36.4062 66.7609 34.9921C74.7394 33.8581 82.5829 28.6808 74.9317 27.4355C66.5516 26.072 56.7169 30.3312 55.6436 33.0076L50.8646 44.9585Z" fill="black"/>
<path opacity="0.017" d="M50.8646 44.9584C50.8646 44.9584 56.8451 36.072 66.8655 34.6646C73.8214 33.6758 81.0945 29.1769 74.2871 27.8978C66.9262 26.514 56.6089 30.6214 55.5356 33.2775L50.8646 44.9584Z" fill="black"/>
<path opacity="0.022" d="M50.8646 44.9584C50.8646 44.9584 56.9497 35.7379 66.9735 34.3373C72.9101 33.4969 79.6061 29.6731 73.6459 28.3568C67.3009 26.9562 56.5042 30.9083 55.4344 33.5476L50.8646 44.9584Z" fill="black"/>
<path opacity="0.028" d="M50.8646 44.9585C50.8646 44.9585 57.0544 35.4072 67.0781 34.0066C71.9955 33.3114 78.1177 30.1726 72.9979 28.8125C67.6721 27.3984 56.3962 31.1919 55.323 33.8109L50.8646 44.9585Z" fill="black"/>
<path opacity="0.033" d="M50.8646 44.9584C50.8646 44.9584 57.159 35.073 67.1827 33.6791C71.0775 33.129 76.6294 30.6821 72.3532 29.2747C68.0467 27.8572 56.2882 31.482 55.215 34.0807L50.8646 44.9584Z" fill="black"/>
<path opacity="0.039" d="M50.8646 44.9584C50.8646 44.9584 57.2636 34.7389 67.2874 33.3518C70.1629 32.9468 75.141 31.2053 71.7053 29.7338C68.418 28.3264 56.1769 31.7689 55.1036 34.3508L50.8646 44.9584Z" fill="black"/>
<path opacity="0.044" d="M50.8646 44.9585C50.8646 44.9585 57.3682 34.4082 67.3954 33.0245C69.2482 32.7646 73.6492 31.7521 71.064 30.1929C68.7859 28.8192 56.0756 32.0559 55.0024 34.6175L50.8646 44.9585Z" fill="black"/>
<path opacity="0.05" d="M50.8646 44.9584C50.8646 44.9584 57.4729 34.0741 67.5 32.6937C68.3336 32.5789 72.1069 32.3393 70.4194 30.6518C69.1132 29.3457 55.9676 32.3427 54.8944 34.8874L50.8646 44.9584Z" fill="black"/>
</g>
<g opacity="0.2">
<path opacity="0.01" d="M103.396 28.1913C103.396 28.1913 98.739 21.9104 88.7186 20.4929C79.7209 19.2138 73.7134 21.6168 82.2082 15.3191C90.8381 8.93019 99.117 18.3464 100.194 20.8912L103.396 28.1913Z" fill="black"/>
<path opacity="0.011" d="M103.255 27.8706C103.255 27.8706 98.739 21.664 88.7186 20.2499C80.7401 19.1159 74.9824 21.2151 82.6267 15.4945C90.342 9.74015 99.2351 18.6164 100.308 21.1611L103.255 27.8706Z" fill="black"/>
<path opacity="0.017" d="M103.113 27.5467C103.113 27.5467 98.739 21.411 88.7186 20.0002C81.7627 19.0113 76.2514 20.8068 83.0452 15.66C89.8459 10.5435 99.3532 18.8797 100.426 21.4245L103.113 27.5467Z" fill="black"/>
<path opacity="0.022" d="M102.971 27.2227C102.971 27.2227 98.739 21.1578 88.7186 19.7538C82.782 18.9134 77.5103 20.3883 83.4638 15.832C89.3363 11.3365 99.4714 19.1463 100.545 21.691L102.971 27.2227Z" fill="black"/>
<path opacity="0.028" d="M102.83 26.9021C102.83 26.9021 98.739 20.9081 88.7186 19.5108C83.8013 18.8156 78.7793 19.9867 83.8823 16.0076C88.8368 12.1466 99.5895 19.4197 100.663 21.9645L102.83 26.9021Z" fill="black"/>
<path opacity="0.033" d="M102.688 26.5781C102.688 26.5781 98.739 20.655 88.7152 19.2611C84.8205 18.711 80.0415 19.5784 84.2974 16.1764C88.3372 12.9499 99.7042 19.683 100.777 22.2277L102.688 26.5781Z" fill="black"/>
<path opacity="0.039" d="M102.546 26.254C102.546 26.254 98.739 20.4051 88.7152 19.0146C85.8397 18.6096 81.3105 19.1733 84.7159 16.3484C87.8411 13.7564 99.819 19.9529 100.896 22.4976L102.546 26.254Z" fill="black"/>
<path opacity="0.044" d="M102.408 25.9335C102.408 25.9335 98.7458 20.1555 88.7186 18.7717C86.8658 18.5119 82.5863 18.7751 85.1378 16.524C87.3484 14.5732 99.9405 20.223 101.017 22.7677L102.408 25.9335Z" fill="black"/>
<path opacity="0.05" d="M102.266 25.6094C102.266 25.6094 98.7458 19.9023 88.7186 18.5253C87.885 18.4105 83.8654 18.3835 85.5529 16.696C86.859 15.3899 100.055 20.4929 101.129 23.0343L102.266 25.6094Z" fill="black"/>
</g>
<g opacity="0.2">
<path opacity="0.011" d="M125.888 64.9687C125.857 64.9552 116.907 60.453 108.847 57.8643C100.788 55.2757 93.6225 54.5973 97.1629 62.2282C99.6806 67.6586 108.27 70.416 117.335 72.7211C126.401 75.0262 135.945 76.8723 140.376 80.4802C136.029 75.4211 130.623 69.7612 125.888 64.9687Z" fill="black"/>
<path opacity="0.018" d="M97.8717 62.1371C100.332 67.1557 108.277 69.8085 116.768 72.0562C117.048 72.1305 117.332 72.2047 117.612 72.279C126.37 74.5605 135.581 76.4538 139.995 80.0482C136.377 75.8598 132.047 71.2665 128.007 67.1253C128 67.1186 127.99 67.1085 127.98 67.1017C127.362 66.4706 126.681 65.826 125.962 65.178C125.651 65.0666 117.146 60.8816 109.465 58.4246C101.557 55.9001 94.446 55.1542 97.8717 62.1371Z" fill="black"/>
<path opacity="0.024" d="M98.577 62.0494C101.064 66.8317 108.82 69.3799 117.065 71.6141C117.339 71.6884 117.615 71.7626 117.892 71.8369C126.343 74.0947 135.223 76.0387 139.62 79.6196C136.11 75.573 131.949 71.1619 128.054 67.1692C128.048 67.1625 128.037 67.1524 128.031 67.1456C127.491 66.5921 126.812 65.9981 126.039 65.3872C125.449 65.1814 117.393 61.3136 110.082 58.9849C102.323 56.5245 95.2762 55.7111 98.577 62.0494Z" fill="black"/>
<path opacity="0.031" d="M99.2857 61.9616C101.807 66.5043 109.367 68.9512 117.366 71.1753C117.632 71.2496 117.902 71.3238 118.172 71.3981C126.316 73.6323 134.862 75.6236 139.242 79.191C135.837 75.2827 131.844 71.0538 128.102 67.2165C128.095 67.2097 128.081 67.1996 128.078 67.1928C127.616 66.7203 126.937 66.177 126.117 65.5965C125.243 65.2961 117.636 61.7422 110.703 59.5485C103.089 57.1522 96.12 56.2612 99.2857 61.9616Z" fill="black"/>
<path opacity="0.037" d="M99.9911 61.8738C102.553 66.177 109.914 68.5226 117.663 70.7366C117.926 70.8108 118.186 70.8851 118.449 70.9627C126.286 73.1733 134.501 75.2152 138.861 78.7657C135.564 74.9992 131.74 70.9526 128.142 67.2671C128.139 67.2637 128.122 67.2502 128.118 67.2468C127.734 66.852 127.055 66.3626 126.188 65.8158C125.034 65.4176 117.872 62.1843 111.314 60.1188C103.852 57.78 96.9773 56.8113 99.9911 61.8738Z" fill="black"/>
<path opacity="0.044" d="M100.697 61.7861C103.305 65.8462 110.457 68.094 117.96 70.2979C118.216 70.3721 118.469 70.4497 118.726 70.524C126.255 72.711 134.139 74.8001 138.483 78.3371C135.29 74.7124 131.635 70.848 128.189 67.311C128.186 67.3076 128.169 67.2975 128.166 67.2907C127.858 66.9735 127.183 66.5347 126.265 66.0217C124.831 65.529 118.115 62.6096 111.935 60.6791C104.618 58.4077 97.848 57.3514 100.697 61.7861Z" fill="black"/>
<path opacity="0.05" d="M101.405 61.6983C104.075 65.5087 111.004 67.6653 118.26 69.8557C118.51 69.9299 118.76 70.0075 119.006 70.0818C126.232 72.2452 133.778 74.3849 138.105 77.9084C135.017 74.4254 131.534 70.7433 128.233 67.3582C128.23 67.3548 128.213 67.3447 128.209 67.3413C127.98 67.105 127.305 66.7169 126.336 66.2377C124.618 65.6504 118.351 63.0483 112.546 61.2461C105.384 59.0321 98.7322 57.8846 101.405 61.6983Z" fill="black"/>
<path opacity="0.057" d="M102.111 61.6106C104.855 65.1611 111.551 67.2368 118.557 69.417C118.8 69.4913 119.043 69.5689 119.286 69.6431C126.205 71.7829 133.421 73.9699 137.73 77.4799C134.75 74.1386 131.433 70.6388 128.284 67.4021C128.28 67.3988 128.264 67.3886 128.26 67.3853C128.105 67.2266 127.437 66.8925 126.417 66.4436C124.419 65.7619 118.598 63.4736 113.171 61.803C106.151 59.6599 99.6334 58.4078 102.111 61.6106Z" fill="black"/>
<path opacity="0.064" d="M102.816 61.5229C105.658 64.7899 112.094 66.8081 118.854 68.9782C119.09 69.0525 119.326 69.1301 119.563 69.2044C126.174 71.3205 133.056 73.5581 137.349 77.0512C134.474 73.8517 131.328 70.5307 128.324 67.4494L128.304 67.4359C128.226 67.3582 127.558 67.0714 126.492 66.6562C124.214 65.8766 118.837 63.9056 113.785 62.37C106.917 60.2876 100.548 58.914 102.816 61.5229Z" fill="black"/>
<path opacity="0.07" d="M128.372 67.4966L128.351 67.4831C128.351 67.4831 121.122 64.9552 114.402 62.9336C107.683 60.912 101.48 59.4 103.525 61.4351C106.495 64.3849 112.641 66.3795 119.154 68.5361C125.668 70.6927 132.543 73.0147 136.971 76.6226C134.2 73.5649 131.223 70.4261 128.372 67.4966Z" fill="black"/>
</g>
<g opacity="0.2">
<path opacity="0.011" d="M42.5385 58.5799L42.498 58.6036C37.5232 63.4804 29.5819 71.4454 23.2571 78.6038C32.1266 71.3881 67.2604 71.5939 72.2959 60.7332C79.3867 45.4579 42.5385 58.5799 42.5385 58.5799Z" fill="black"/>
<path opacity="0.018" d="M42.1942 58.9175L42.1605 58.9377C37.3207 63.6897 29.7472 71.2936 23.6486 78.1752C32.5181 70.9595 66.2917 71.0911 71.3576 60.7467C78.2055 46.7641 42.1942 58.9175 42.1942 58.9175Z" fill="black"/>
<path opacity="0.024" d="M41.85 59.2549L41.8196 59.2718C37.1149 63.8989 29.9092 71.1417 24.0334 77.7432C32.8995 70.5274 65.3062 70.5848 70.4126 60.7568C77.0074 48.0634 41.85 59.2549 41.85 59.2549Z" fill="black"/>
<path opacity="0.031" d="M41.5091 59.5924L41.4821 59.6092C36.909 64.1115 30.0746 70.9931 24.4215 77.3179C33.2876 70.1021 64.314 70.0852 69.4676 60.7736C75.7856 49.356 41.5091 59.5924 41.5091 59.5924Z" fill="black"/>
<path opacity="0.037" d="M41.1649 59.9299L41.1446 59.9434C36.7065 64.3208 30.2366 70.8413 24.813 76.8893C33.6791 69.6736 63.3116 69.5824 68.5294 60.7872C74.5436 50.6419 41.1649 59.9299 41.1649 59.9299Z" fill="black"/>
<path opacity="0.044" d="M40.8206 60.2674L40.8038 60.2775C36.4973 64.53 30.3986 70.6894 25.1978 76.4573C34.0639 69.2415 62.2856 69.066 67.581 60.8006C73.2746 51.9176 40.8206 60.2674 40.8206 60.2674Z" fill="black"/>
<path opacity="0.05" d="M40.4764 60.605L40.4629 60.6117C36.2914 64.7394 30.5606 70.5376 25.5825 76.0287C34.4486 68.813 61.2394 68.543 66.636 60.8142C71.9752 53.1766 40.4764 60.605 40.4764 60.605Z" fill="black"/>
<path opacity="0.057" d="M40.1355 60.9424L40.1253 60.9491C36.0855 64.9519 30.7226 70.3856 25.974 75.6034C34.8401 68.391 60.1661 67.9995 65.6977 60.831C70.6455 54.4118 40.1355 60.9424 40.1355 60.9424Z" fill="black"/>
<path opacity="0.064" d="M39.7912 61.28L39.7879 61.2834C35.883 65.1612 30.888 70.2339 26.3621 75.1715C35.2282 67.9591 59.0456 67.4124 64.7528 60.8412C69.2888 55.6201 39.7912 61.28 39.7912 61.28Z" fill="black"/>
<path opacity="0.07" d="M39.447 61.6174C35.6771 65.3704 31.05 70.0819 26.7469 74.7428C35.613 67.5304 57.8677 66.7575 63.8077 60.8546C67.905 56.7878 39.447 61.6174 39.447 61.6174Z" fill="black"/>
</g>
<g opacity="0.2">
<path opacity="0.033" d="M60.7439 20.2501L62.6305 15.5082C54.6992 19.0351 52.1714 25.5792 52.1714 25.5792L60.7439 20.2501Z" fill="black"/>
<path opacity="0.067" d="M60.7432 20.25L62.4476 15.9637C54.7864 19.3219 52.1674 25.5825 52.1674 25.5825L60.7432 20.25Z" fill="black"/>
<path opacity="0.1" d="M60.7432 20.25L62.2687 16.416C54.8741 19.6054 52.1707 25.5825 52.1707 25.5825L60.7432 20.25Z" fill="black"/>
<path opacity="0.133" d="M60.7432 20.25L62.0898 16.8683C54.9652 19.8889 52.1707 25.5825 52.1707 25.5825L60.7432 20.25Z" fill="black"/>
<path opacity="0.167" d="M60.7432 20.2501L61.9076 17.3206C55.0496 20.1691 52.1707 25.5792 52.1707 25.5792L60.7432 20.2501Z" fill="black"/>
<path opacity="0.2" d="M60.7432 20.2501L61.7287 17.7728C55.1407 20.4526 52.1707 25.5792 52.1707 25.5792L60.7432 20.2501Z" fill="black"/>
<path opacity="0.233" d="M60.7432 20.2501L61.5498 18.2251C55.2285 20.7361 52.1707 25.5792 52.1707 25.5792L60.7432 20.2501Z" fill="black"/>
<path opacity="0.267" d="M60.7432 20.25L61.3676 18.6807C55.3162 21.0229 52.1707 25.5825 52.1707 25.5825L60.7432 20.25Z" fill="black"/>
<path opacity="0.3" d="M60.7432 20.2501L61.1887 19.1329C55.404 21.3064 52.1707 25.5826 52.1707 25.5826L60.7432 20.2501Z" fill="black"/>
</g>
<path d="M50.8646 44.9583L47.25 54C47.2534 53.9966 57.3784 47.2466 81 47.2466C104.622 47.2466 114.747 53.9966 114.75 54C114.75 54 114.75 54 114.716 53.9662L110.69 44.8031C104.642 42.7106 94.9522 40.4966 81 40.4966C66.7001 40.4966 56.8789 42.822 50.8646 44.9583Z" fill="#81D4FA"/>
<path d="M13.5 92.8125C13.5 92.8125 23.625 81 81 81C138.375 81 148.5 92.8125 148.5 92.8125L146.694 93.4605C143.984 91.368 129.799 82.6875 81 82.6875C32.2886 82.6875 18.0664 91.3376 15.309 93.4639L13.5 92.8125Z" fill="#01457A"/>
<path d="M30.9521 155.25L21.3975 88.6343L11.3771 90.072L20.7225 155.25H30.9521Z" fill="url(#paint24_linear)"/>
<path d="M30.9521 155.25L21.3975 88.6343L11.3771 90.072L20.7225 155.25H30.9521Z" fill="url(#paint25_radial)"/>
<path d="M15.1875 96.1875C23.5753 96.1875 30.375 89.3878 30.375 81C30.375 72.6122 23.5753 65.8125 15.1875 65.8125C6.79967 65.8125 0 72.6122 0 81C0 89.3878 6.79967 96.1875 15.1875 96.1875Z" fill="white"/>
<path d="M15.2415 96.2955C23.6591 96.2955 30.483 89.4716 30.483 81.054C30.483 72.6364 23.6591 65.8125 15.2415 65.8125C6.82385 65.8125 0 72.6364 0 81.054C0 89.4716 6.82385 96.2955 15.2415 96.2955Z" fill="url(#paint26_radial)"/>
<path d="M15.1875 96.1875C23.5753 96.1875 30.375 89.3878 30.375 81C30.375 72.6122 23.5753 65.8125 15.1875 65.8125C6.79967 65.8125 0 72.6122 0 81C0 89.3878 6.79967 96.1875 15.1875 96.1875Z" fill="#CA3CE2"/>
<path d="M15.1875 96.1875C23.5753 96.1875 30.375 89.3878 30.375 81C30.375 72.6122 23.5753 65.8125 15.1875 65.8125C6.79967 65.8125 0 72.6122 0 81C0 89.3878 6.79967 96.1875 15.1875 96.1875Z" fill="url(#paint27_radial)"/>
<path d="M23.3145 101.999L13.2941 103.437L7.49252 96.6903L26.9831 93.8925L23.3145 101.999Z" fill="white"/>
<path d="M23.3145 101.999L13.2941 103.437L7.49252 96.6903L26.9831 93.8925L23.3145 101.999Z" fill="#3032C8"/>
<path d="M13.2941 103.437L23.3145 101.999L26.9831 93.8925L7.49252 96.6903L13.2941 103.437Z" fill="#3032C8"/>
<path d="M13.2941 103.437L23.3145 101.999L26.9831 93.8925L7.49252 96.6903L13.2941 103.437Z" fill="url(#paint28_linear)"/>
<path d="M7.08414 97.4902C8.01612 97.4902 8.77164 96.7347 8.77164 95.8027C8.77164 94.8708 8.01612 94.1152 7.08414 94.1152C6.15216 94.1152 5.39664 94.8708 5.39664 95.8027C5.39664 96.7347 6.15216 97.4902 7.08414 97.4902Z" fill="url(#paint29_radial)"/>
<path d="M27.1283 94.6147C28.0602 94.6147 28.8158 93.8592 28.8158 92.9272C28.8158 91.9953 28.0602 91.2397 27.1283 91.2397C26.1963 91.2397 25.4408 91.9953 25.4408 92.9272C25.4408 93.8592 26.1963 94.6147 27.1283 94.6147Z" fill="url(#paint30_radial)"/>
<path d="M26.8886 91.2566C26.8886 91.2566 7.60051 94.0241 6.84451 94.1321L7.08414 95.8027L7.32376 97.4733C8.08314 97.3653 27.3679 94.5978 27.3679 94.5978L26.8886 91.2566Z" fill="url(#paint31_linear)"/>
<defs>
<linearGradient id="paint0_linear" x1="81" y1="108" x2="81" y2="81" gradientUnits="userSpaceOnUse">
<stop stop-color="#0071BC"/>
<stop offset="0.796" stop-color="#000B12"/>
</linearGradient>
<radialGradient id="paint1_radial" cx="0" cy="0" r="1" gradientUnits="userSpaceOnUse" gradientTransform="translate(80.8607 101.719) scale(72.5684 62.061)">
<stop offset="0.636" stop-color="#000B12"/>
<stop offset="0.705" stop-color="#00243D"/>
<stop offset="0.804" stop-color="#004573"/>
<stop offset="0.89" stop-color="#005D9B"/>
<stop offset="0.958" stop-color="#006CB3"/>
<stop offset="1" stop-color="#0071BC"/>
</radialGradient>
<radialGradient id="paint2_radial" cx="0" cy="0" r="1" gradientUnits="userSpaceOnUse" gradientTransform="translate(80.658 120.725) rotate(-0.17459) scale(49.1854 30.6266)">
<stop stop-color="#0277BD"/>
<stop offset="0.849" stop-color="#0071BC"/>
<stop offset="0.869" stop-color="#0178C3"/>
<stop offset="0.921" stop-color="#0288D1"/>
<stop offset="0.943" stop-color="#027FC7"/>
<stop offset="0.98" stop-color="#0167AD"/>
<stop offset="1" stop-color="#01579B"/>
</radialGradient>
<radialGradient id="paint3_radial" cx="0" cy="0" r="1" gradientUnits="userSpaceOnUse" gradientTransform="translate(80.7006 139.611) rotate(0.258874) scale(51.7328 23.3525)">
<stop stop-color="#0277BD" stop-opacity="0"/>
<stop offset="0.559" stop-color="#0275BB" stop-opacity="0.559"/>
<stop offset="0.76" stop-color="#026FB4" stop-opacity="0.76"/>
<stop offset="0.903" stop-color="#0164A9" stop-opacity="0.903"/>
<stop offset="1" stop-color="#01579B"/>
</radialGradient>
<radialGradient id="paint4_radial" cx="0" cy="0" r="1" gradientUnits="userSpaceOnUse" gradientTransform="translate(81.497 111.31) rotate(0.0433466) scale(40.3297 38.2109)">
<stop offset="0.5" stop-color="#000B12" stop-opacity="0.7"/>
<stop offset="0.571" stop-color="#000E16" stop-opacity="0.601"/>
<stop offset="0.648" stop-color="#001624" stop-opacity="0.493"/>
<stop offset="0.728" stop-color="#00233A" stop-opacity="0.381"/>
<stop offset="0.811" stop-color="#003558" stop-opacity="0.265"/>
<stop offset="0.895" stop-color="#004D80" stop-opacity="0.147"/>
<stop offset="0.979" stop-color="#0069AF" stop-opacity="0.029"/>
<stop offset="1" stop-color="#0071BC" stop-opacity="0"/>
</radialGradient>
<radialGradient id="paint5_radial" cx="0" cy="0" r="1" gradientUnits="userSpaceOnUse" gradientTransform="translate(113.774 95.6356) rotate(15.0211) scale(3.5282 11.3358)">
<stop stop-color="#FFE16E"/>
<stop offset="0.461" stop-color="#FFD226"/>
<stop offset="0.741" stop-color="#F8C21D"/>
<stop offset="0.999" stop-color="#F0AF13"/>
</radialGradient>
<radialGradient id="paint6_radial" cx="0" cy="0" r="1" gradientUnits="userSpaceOnUse" gradientTransform="translate(48.4708 95.6023) rotate(165.77) scale(3.72004 11.3768)">
<stop stop-color="#FFE16E"/>
<stop offset="0.461" stop-color="#FFD226"/>
<stop offset="0.741" stop-color="#F8C21D"/>
<stop offset="0.999" stop-color="#F0AF13"/>
</radialGradient>
<radialGradient id="paint7_radial" cx="0" cy="0" r="1" gradientUnits="userSpaceOnUse" gradientTransform="translate(80.9964 90.065) scale(34.2223 44.341)">
<stop stop-color="#FFE16E"/>
<stop offset="0.629" stop-color="#FFD226"/>
<stop offset="0.75" stop-color="#FDCD23"/>
<stop offset="0.899" stop-color="#F6BD1B"/>
<stop offset="0.999" stop-color="#F0AF13"/>
</radialGradient>
<radialGradient id="paint8_radial" cx="0" cy="0" r="1" gradientUnits="userSpaceOnUse" gradientTransform="translate(81.1283 109.044) scale(34.5094 35.3065)">
<stop offset="0.666" stop-color="#FBF9F7"/>
<stop offset="0.736" stop-color="#F3EEE9"/>
<stop offset="0.868" stop-color="#DED2C4"/>
<stop offset="0.999" stop-color="#C6B199"/>
</radialGradient>
<radialGradient id="paint9_radial" cx="0" cy="0" r="1" gradientUnits="userSpaceOnUse" gradientTransform="translate(81.006 115.351) scale(6.89233 8.95295)">
<stop offset="0.415" stop-opacity="0.3"/>
<stop offset="1" stop-opacity="0"/>
</radialGradient>
<radialGradient id="paint10_radial" cx="0" cy="0" r="1" gradientUnits="userSpaceOnUse" gradientTransform="translate(81.1159 115.233) scale(7.44024 4.41492)">
<stop stop-color="#1C1911"/>
<stop offset="0.999" stop-color="#171714"/>
</radialGradient>
<radialGradient id="paint11_radial" cx="0" cy="0" r="1" gradientUnits="userSpaceOnUse" gradientTransform="translate(81.6482 62.9136) scale(29.6462 31.146)">
<stop stop-color="white"/>
<stop offset="0.194" stop-color="#F5F0EA"/>
<stop offset="0.46" stop-color="#E9DFD4"/>
<stop offset="0.629" stop-color="#E5D9CC"/>
<stop offset="0.736" stop-color="#DED0C0"/>
<stop offset="0.926" stop-color="#CCB9A2"/>
<stop offset="0.972" stop-color="#C7B299"/>
</radialGradient>
<radialGradient id="paint12_radial" cx="0" cy="0" r="1" gradientUnits="userSpaceOnUse" gradientTransform="translate(80.8714 104.164) scale(6.57497 6.33261)">
<stop offset="0.245" stop-color="#CC9000"/>
<stop offset="0.415" stop-color="#D09504" stop-opacity="0.822"/>
<stop offset="0.627" stop-color="#DCA50F" stop-opacity="0.599"/>
<stop offset="0.851" stop-color="#EEBD20" stop-opacity="0.363"/>
<stop offset="1" stop-color="#FED12E" stop-opacity="0"/>
</radialGradient>
<radialGradient id="paint13_radial" cx="0" cy="0" r="1" gradientUnits="userSpaceOnUse" gradientTransform="translate(80.9932 103.659) rotate(1.39087) scale(7.32818 3.50963)">
<stop offset="0.479" stop-color="#FED53F"/>
<stop offset="0.926" stop-color="#FED53F" stop-opacity="0.141"/>
<stop offset="1" stop-color="#FED53F" stop-opacity="0"/>
</radialGradient>
<radialGradient id="paint14_radial" cx="0" cy="0" r="1" gradientUnits="userSpaceOnUse" gradientTransform="translate(81.0371 103.521) scale(3.96225 2.6135)">
<stop offset="0.004" stop-color="#FFF4C9"/>
<stop offset="1" stop-color="#FFF4C9" stop-opacity="0"/>
</radialGradient>
<linearGradient id="paint15_linear" x1="58.5158" y1="94.608" x2="69.7377" y2="94.608" gradientUnits="userSpaceOnUse">
<stop stop-color="#C69C6D"/>
<stop offset="1" stop-color="#754C24"/>
</linearGradient>
<radialGradient id="paint16_radial" cx="0" cy="0" r="1" gradientUnits="userSpaceOnUse" gradientTransform="translate(64.125 94.608) scale(2.82487)">
<stop stop-color="#1C1911"/>
<stop offset="0.999" stop-color="#171714"/>
</radialGradient>
<linearGradient id="paint17_linear" x1="103.555" y1="94.608" x2="92.3366" y2="94.608" gradientUnits="userSpaceOnUse">
<stop stop-color="#754C24"/>
<stop offset="1" stop-color="#C69C6D"/>
</linearGradient>
<radialGradient id="paint18_radial" cx="0" cy="0" r="1" gradientUnits="userSpaceOnUse" gradientTransform="translate(97.9459 94.608) rotate(180) scale(2.82487)">
<stop stop-color="#1C1911"/>
<stop offset="0.999" stop-color="#171714"/>
</radialGradient>
<linearGradient id="paint19_linear" x1="118.567" y1="43.5172" x2="55.2217" y2="24.1515" gradientUnits="userSpaceOnUse">
<stop stop-color="#29ABE2" stop-opacity="0"/>
<stop offset="0.444" stop-color="#158ECF" stop-opacity="0.525"/>
<stop offset="0.846" stop-color="#0071BC"/>
</linearGradient>
<linearGradient id="paint20_linear" x1="43.2979" y1="42.9773" x2="103.299" y2="24.6341" gradientUnits="userSpaceOnUse">
<stop stop-color="#29ABE2" stop-opacity="0"/>
<stop offset="0.444" stop-color="#158ECF" stop-opacity="0.525"/>
<stop offset="0.846" stop-color="#0071BC"/>
</linearGradient>
<linearGradient id="paint21_linear" x1="13.5" y1="70.0312" x2="148.5" y2="70.0312" gradientUnits="userSpaceOnUse">
<stop stop-color="#29ABE2" stop-opacity="0"/>
<stop offset="0.444" stop-color="#158ECF" stop-opacity="0.525"/>
<stop offset="0.846" stop-color="#0071BC"/>
</linearGradient>
<linearGradient id="paint22_linear" x1="13.5" y1="70.0312" x2="148.5" y2="70.0312" gradientUnits="userSpaceOnUse">
<stop offset="0.154" stop-color="#0071BC"/>
<stop offset="0.556" stop-color="#158ECF" stop-opacity="0.525"/>
<stop offset="1" stop-color="#29ABE2" stop-opacity="0"/>
</linearGradient>
<radialGradient id="paint23_radial" cx="0" cy="0" r="1" gradientUnits="userSpaceOnUse" gradientTransform="translate(81.0029 103.07) rotate(-1.86811) scale(99.0931 61.3099)">
<stop offset="0.123" stop-color="#0071BC"/>
<stop offset="0.438" stop-color="#0273BE" stop-opacity="0.829"/>
<stop offset="0.696" stop-color="#158ED0" stop-opacity="0.449"/>
<stop offset="1" stop-color="#29ABE2" stop-opacity="0"/>
</radialGradient>
<linearGradient id="paint24_linear" x1="13.9354" y1="123.711" x2="28.1306" y2="121.652" gradientUnits="userSpaceOnUse">
<stop stop-color="#42210B"/>
<stop offset="0.503" stop-color="#8C6239"/>
<stop offset="0.537" stop-color="#855C35"/>
<stop offset="0.736" stop-color="#613C1E"/>
<stop offset="0.896" stop-color="#4A2810"/>
<stop offset="0.999" stop-color="#42210B"/>
</linearGradient>
<radialGradient id="paint25_radial" cx="0" cy="0" r="1" gradientUnits="userSpaceOnUse" gradientTransform="translate(21.0094 100.437) scale(18.3161)">
<stop stop-color="#603813"/>
<stop offset="0.987" stop-color="#8C6239" stop-opacity="0"/>
</radialGradient>
<radialGradient id="paint26_radial" cx="0" cy="0" r="1" gradientUnits="userSpaceOnUse" gradientTransform="translate(15.2384 81.0539) rotate(36.8412) scale(15.2415 13.7673)">
<stop offset="0.66" stop-color="#F7C9FF" stop-opacity="0.1"/>
<stop offset="0.744" stop-color="#C5F3FF" stop-opacity="0.324"/>
<stop offset="0.822" stop-color="#BAEEFE" stop-opacity="0.53"/>
<stop offset="0.898" stop-color="#A8E6FD" stop-opacity="0.73"/>
<stop offset="0.971" stop-color="#8DDAFB" stop-opacity="0.924"/>
<stop offset="1" stop-color="#81D4FA"/>
</radialGradient>
<radialGradient id="paint27_radial" cx="0" cy="0" r="1" gradientUnits="userSpaceOnUse" gradientTransform="translate(15.1847 80.9986) rotate(55) scale(15.1875)">
<stop stop-color="#EDF3F7"/>
<stop offset="0.089" stop-color="#F6F9FB" stop-opacity="0.856"/>
<stop offset="0.243" stop-color="#FDFEFE" stop-opacity="0.605"/>
<stop offset="0.616" stop-color="white" stop-opacity="0"/>
</radialGradient>
<linearGradient id="paint28_linear" x1="17.1627" y1="94.8685" x2="18.2273" y2="102.293" gradientUnits="userSpaceOnUse">
<stop stop-color="#3032C8"/>
<stop offset="0.473" stop-color="#027EC5" stop-opacity="0.527"/>
<stop offset="0.999" stop-color="#0277BD" stop-opacity="0"/>
</linearGradient>
<radialGradient id="paint29_radial" cx="0" cy="0" r="1" gradientUnits="userSpaceOnUse" gradientTransform="translate(7.0977 95.7959) rotate(-8.163) scale(1.6875)">
<stop stop-color="#81D4FA"/>
<stop offset="1" stop-color="#4FC3F7"/>
</radialGradient>
<radialGradient id="paint30_radial" cx="0" cy="0" r="1" gradientUnits="userSpaceOnUse" gradientTransform="translate(27.1425 92.9207) rotate(-8.163) scale(1.6875)">
<stop stop-color="#81D4FA"/>
<stop offset="1" stop-color="#4FC3F7"/>
</radialGradient>
<linearGradient id="paint31_linear" x1="16.8805" y1="92.6879" x2="17.3597" y2="96.0287" gradientUnits="userSpaceOnUse">
<stop stop-color="#4FC3F7"/>
<stop offset="0.521" stop-color="#81D4FA"/>
<stop offset="1" stop-color="#4FC3F7"/>
</linearGradient>
</defs>
</svg>
