<svg width="63" height="63" viewBox="0 0 63 63" fill="none" xmlns="http://www.w3.org/2000/svg">
<path d="M57.8813 57.5899C42.7747 49.0424 9.14447 48.4706 5.11877 48.4336V20.8688H57.8813V57.5899Z" fill="#BAE0BD"/>
<path d="M57.4875 21.2625V56.9228C42.2927 48.7549 11.0234 48.0942 5.51248 48.0422V21.2625H9.30271H57.4875ZM58.275 20.475C58.275 20.475 23.158 20.475 9.30271 20.475C5.9897 20.475 4.72498 20.475 4.72498 20.475V48.825C4.72498 48.825 42.525 48.825 58.275 58.275V20.475Z" fill="#5E9C76"/>
<path d="M59.4562 49.907C40.2451 45.5946 7.50561 45.3025 3.5437 45.2828V11.4187H59.4562V49.907Z" fill="#BAE0BD"/>
<path d="M59.0625 11.8125V49.4164C40.2885 45.3144 9.26417 44.9277 3.93752 44.8915V11.8125H4.98884H59.0625ZM59.85 11.025C59.85 11.025 16.3422 11.025 4.98884 11.025C3.31934 11.025 3.15002 11.025 3.15002 11.025V45.675C3.15002 45.675 39.375 45.675 59.85 50.4C59.85 46.8563 59.85 11.025 59.85 11.025Z" fill="#5E9C76"/>
<path d="M1.96875 8.2688H61.0312V42.1313H1.96875V8.2688Z" fill="#BAE0BD"/>
<path d="M60.6375 8.6625V41.7375H2.36245V8.6625H60.6375ZM61.425 7.875H1.57495V42.525H61.425V7.875Z" fill="#5E9C76"/>
<path d="M31.5001 37.4063C24.7693 37.4063 19.2938 31.9308 19.2938 25.2C19.2938 18.4693 24.7693 12.9938 31.5001 12.9938C38.2308 12.9938 43.7063 18.4693 43.7063 25.2C43.7063 31.9308 38.2308 37.4063 31.5001 37.4063Z" fill="white"/>
<path d="M31.5 13.3875C38.0134 13.3875 43.3125 18.6866 43.3125 25.2C43.3125 31.7134 38.0134 37.0125 31.5 37.0125C24.9866 37.0125 19.6875 31.7134 19.6875 25.2C19.6875 18.6866 24.9866 13.3875 31.5 13.3875ZM31.5 12.6C24.5409 12.6 18.9 18.2408 18.9 25.2C18.9 32.1591 24.5409 37.8 31.5 37.8C38.4592 37.8 44.1 32.1591 44.1 25.2C44.1 18.2408 38.4592 12.6 31.5 12.6Z" fill="#5E9C76"/>
<path d="M51.975 20.8688C50.8263 20.8688 49.7247 21.3251 48.9124 22.1374C48.1001 22.9496 47.6438 24.0513 47.6438 25.2C47.6438 26.3487 48.1001 27.4504 48.9124 28.2627C49.7247 29.0749 50.8263 29.5313 51.975 29.5313C53.1238 29.5313 54.2254 29.0749 55.0377 28.2627C55.85 27.4504 56.3063 26.3487 56.3063 25.2C56.3063 24.0513 55.85 22.9496 55.0377 22.1374C54.2254 21.3251 53.1238 20.8688 51.975 20.8688Z" fill="white"/>
<path d="M51.975 21.2625C54.1461 21.2625 55.9125 23.0288 55.9125 25.2C55.9125 27.3711 54.1461 29.1375 51.975 29.1375C49.8039 29.1375 48.0375 27.3711 48.0375 25.2C48.0375 23.0288 49.8039 21.2625 51.975 21.2625ZM51.975 20.475C49.3652 20.475 47.25 22.5902 47.25 25.2C47.25 27.8098 49.3652 29.925 51.975 29.925C54.5848 29.925 56.7 27.8098 56.7 25.2C56.7 22.5902 54.5848 20.475 51.975 20.475Z" fill="#5E9C76"/>
<path d="M11.0251 20.8688C9.87638 20.8688 8.77471 21.3251 7.96244 22.1374C7.15017 22.9496 6.69385 24.0513 6.69385 25.2C6.69385 26.3487 7.15017 27.4504 7.96244 28.2627C8.77471 29.0749 9.87638 29.5313 11.0251 29.5313C12.1738 29.5313 13.2755 29.0749 14.0878 28.2627C14.9 27.4504 15.3563 26.3487 15.3563 25.2C15.3563 24.0513 14.9 22.9496 14.0878 22.1374C13.2755 21.3251 12.1738 20.8688 11.0251 20.8688Z" fill="white"/>
<path d="M11.025 21.2625C13.1962 21.2625 14.9625 23.0288 14.9625 25.2C14.9625 27.3711 13.1962 29.1375 11.025 29.1375C8.85391 29.1375 7.08755 27.3711 7.08755 25.2C7.08755 23.0288 8.85391 21.2625 11.025 21.2625ZM11.025 20.475C8.41527 20.475 6.30005 22.5902 6.30005 25.2C6.30005 27.8098 8.41527 29.925 11.025 29.925C13.6348 29.925 15.75 27.8098 15.75 25.2C15.75 22.5902 13.6348 20.475 11.025 20.475Z" fill="#5E9C76"/>
</svg>
