<svg width="80" height="80" viewBox="0 0 80 80" fill="none" xmlns="http://www.w3.org/2000/svg">
<path d="M40.8967 6.66675C26.4783 6.66675 10 14.9234 10 38.2451C10 55.1801 22.7967 73.3334 42.3717 73.3334C42.3783 73.3334 42.655 73.3334 42.665 73.3334C50.0167 73.2018 57.9283 68.4701 57.9283 58.4018C57.9283 56.4734 57.205 54.8034 56.5717 53.3318C56.4 52.9434 56.2383 52.5618 56.0883 52.1751C54.64 48.5501 56.2383 47.2234 59.9933 44.5667C64.2467 41.5567 70.0733 37.4367 69.9983 26.5351C69.9983 20.0534 62.885 6.66675 40.8967 6.66675ZM41.5017 65.0001C37.745 65.0001 34.795 62.0667 34.795 58.3351C34.795 54.6001 37.745 51.6668 41.5017 51.6668C45.2533 51.6668 48.2033 54.6001 48.2033 58.3351C48.2033 62.0667 45.255 65.0001 41.5017 65.0001Z" fill="#FFC107"/>
<path d="M42.5 11.6666C39.2783 11.6666 36.6667 14.2783 36.6667 17.5C36.6667 20.7216 39.2783 23.3333 42.5 23.3333C45.7217 23.3333 48.3333 20.7216 48.3333 17.5C48.3333 14.2783 45.7217 11.6666 42.5 11.6666Z" fill="#2196F3"/>
<path d="M25.8333 20C22.6117 20 20 22.6117 20 25.8333C20 29.055 22.6117 31.6667 25.8333 31.6667C29.055 31.6667 31.6667 29.055 31.6667 25.8333C31.6667 22.6117 29.055 20 25.8333 20Z" fill="#4CAF50"/>
<path d="M24.1667 38.3334C20.945 38.3334 18.3333 40.945 18.3333 44.1667C18.3333 47.3884 20.945 50 24.1667 50C27.3883 50 30 47.3884 30 44.1667C30 40.945 27.3883 38.3334 24.1667 38.3334Z" fill="#FF3D00"/>
<path d="M61.6667 36.6666H53.3333V41.6666H61.6667V36.6666Z" fill="#9E9E9E"/>
<path d="M57.5 76.6666C56.2283 76.6666 55.1783 75.6716 55.1083 74.4016L53.3333 41.6666H61.6667L59.8917 74.4016C59.8217 75.6716 58.7717 76.6666 57.5 76.6666Z" fill="#424242"/>
<path d="M63.3333 31.6667C63.3333 34.125 61.6667 36.6667 61.6667 36.6667H53.3333C53.3333 36.6667 51.6667 34.1217 51.6667 31.6667C51.6667 24.1667 60.1117 20 63.3333 20C60 25 63.3333 26.6667 63.3333 31.6667Z" fill="#F6F6F6"/>
</svg>
