<svg width="35" height="35" viewBox="0 0 35 35" fill="none" xmlns="http://www.w3.org/2000/svg">
<path d="M24.4444 0L22.265 5.74818L16.7949 3.02311L19.2735 8.60097L13.5043 10.517L18.9744 12.5608L13.1197 18.3942L13.2051 18.4793L0.512821 31.0827C-0.17094 31.764 -0.17094 32.9988 0.512821 33.68L1.32479 34.4891C2.00855 35.1703 3.24786 35.1703 3.93162 34.4891L17.4786 20.9915L17.3932 20.9489L22.1795 16.18L23.8889 21.4173L26.1111 15.6691L31.5812 18.3942L29.1026 12.8163L35 10.9002L29.2308 8.72871L31.9658 3.27859L26.3675 5.74818L24.4444 0ZM22.9487 10.6448C23.0876 10.6448 23.2051 10.6341 23.2051 10.7725L24.0598 11.5815C24.1987 11.7199 24.1987 11.9913 24.0598 12.2628L16.3675 19.927L14.8718 18.3942L22.5214 10.7725C22.6603 10.7725 22.8098 10.6448 22.9487 10.6448Z" fill="#6F70ED"/>
</svg>
